<svg version="1.1" id="Layer_1" xmlns="http://www.w3.org/2000/svg" xmlns:xlink="http://www.w3.org/1999/xlink" x="0px" y="0px"
	 width="100%" viewBox="0 0 1024 1024" enable-background="new 0 0 1024 1024" xml:space="preserve">
<path fill="#ff8c00" opacity="1.000000" stroke="none" 
	d="
M584.746338,689.187378 
	C577.291687,679.564575 575.080750,669.222107 578.751770,657.913086 
	C580.104370,653.745850 578.535156,652.289734 574.658142,652.286133 
	C553.994202,652.266846 533.330261,652.275574 512.666321,652.261780 
	C507.725922,652.258423 507.953339,654.999023 508.946564,658.634766 
	C513.302368,674.579956 506.603027,690.323364 492.419922,696.998047 
	C479.903046,702.888550 467.902740,701.352356 457.391022,692.515381 
	C447.120178,683.880981 444.311005,672.417236 447.257416,659.537903 
	C448.697723,653.241943 448.331238,652.557129 441.619965,652.279236 
	C431.459930,651.858459 430.268860,650.925720 427.481903,641.724060 
	C404.905029,567.181458 382.323730,492.640167 359.710449,418.108612 
	C356.204620,406.553619 351.790863,403.360962 339.848755,403.351746 
	C330.849915,403.344788 321.850464,403.395569 312.852478,403.302704 
	C306.024658,403.232269 301.824158,399.248108 301.827789,393.085419 
	C301.831085,387.397095 306.144379,382.944763 312.567810,382.881683 
	C329.063599,382.719574 345.564209,382.746643 362.059326,382.966003 
	C368.681519,383.054047 371.866699,386.035034 373.765228,392.479187 
	C375.645477,398.861267 377.703522,405.191681 379.532288,411.588013 
	C380.505188,414.990814 382.374359,416.246704 386.041901,416.241760 
	C486.362274,416.106934 586.682800,416.058014 687.003296,416.070984 
	C705.290405,416.073364 715.564636,430.273132 710.293457,447.901154 
	C697.276123,491.433960 684.267090,534.969238 671.207825,578.489502 
	C670.252991,581.671570 669.075500,584.808411 667.736816,587.849792 
	C663.094055,598.398132 655.247925,603.382935 643.408569,603.343079 
	C577.584229,603.121643 511.758789,603.224670 445.933716,603.221375 
	C438.093597,603.220947 437.669983,603.810730 440.099792,611.159546 
	C441.040405,614.004333 441.944183,616.862122 442.929565,619.691345 
	C445.937012,628.326538 450.623688,631.630615 459.733643,631.629028 
	C486.063629,631.624451 512.393677,631.659119 538.723633,631.621887 
	C574.383667,631.571472 610.043640,631.469299 645.703613,631.387695 
	C651.988159,631.373291 656.484009,635.191711 657.064270,641.046448 
	C657.576965,646.219116 653.420776,650.997498 647.502808,651.965088 
	C646.359314,652.152039 645.180115,652.127686 644.016602,652.183777 
	C638.717712,652.439270 638.331726,652.988892 639.760986,658.271545 
	C645.839355,680.736938 630.533020,701.021301 607.819824,700.263733 
	C598.808594,699.963074 591.062683,696.301758 584.746338,689.187378 
M590.489563,469.873993 
	C587.005493,468.054169 583.422058,467.027313 579.462952,468.208740 
	C574.168396,469.788605 570.646545,467.742523 567.893799,463.070374 
	C563.546570,455.691986 557.792175,449.390656 551.110840,444.070435 
	C542.558838,437.260681 533.049805,437.441742 524.638123,444.403381 
	C522.221130,446.403717 520.135498,448.833160 518.055176,451.203796 
	C515.752380,453.827911 513.766602,456.737335 511.393066,459.290314 
	C508.649017,462.241791 500.280823,463.859863 498.029846,461.468903 
	C494.022430,457.212311 488.174103,454.550385 486.577606,448.064697 
	C485.743225,444.674896 483.393158,441.965271 479.456696,442.193268 
	C475.511780,442.421722 474.344604,445.755280 473.835052,448.888763 
	C472.968262,454.218872 470.336243,457.899078 465.723206,460.744995 
	C460.547089,463.938263 460.821136,470.118286 466.350037,472.497681 
	C471.368317,474.657349 473.326080,478.372742 474.064575,483.212402 
	C474.654419,487.078003 475.580505,490.741638 478.726257,493.390839 
	C480.302795,494.718536 480.105042,496.222321 479.469421,497.901917 
	C477.290710,503.658936 475.217743,509.456604 472.987549,515.193359 
	C467.986176,528.058533 461.889160,540.511597 458.327728,553.916992 
	C456.182281,561.992371 459.047302,568.343933 466.681763,571.270874 
	C482.507965,577.338318 498.474548,583.031311 514.994629,586.989929 
	C517.115967,587.498230 519.285828,587.914978 520.488525,590.030518 
	C525.071960,598.093079 532.035828,600.521667 540.821716,598.657288 
	C542.935364,598.208801 545.063721,597.808655 547.148926,597.250488 
	C560.322632,593.724243 573.748047,591.365356 587.064087,588.495605 
	C596.961304,586.362610 606.930725,584.358643 616.472900,580.833862 
	C625.604858,577.460632 628.758057,572.057068 626.882385,562.671875 
	C624.133118,548.915894 619.459595,535.762878 614.054871,522.845703 
	C611.536194,516.826050 614.125549,507.047791 619.252563,502.971771 
	C621.987793,500.797180 622.513428,498.604492 619.296448,496.718597 
	C616.239868,494.926788 614.132690,492.700867 613.323669,489.173615 
	C612.990234,487.719910 612.006592,486.373596 610.202881,486.406860 
	C608.491028,486.438385 607.625916,487.652618 606.889893,489.052917 
	C606.092102,490.570709 606.147949,492.731934 603.695557,493.365540 
	C601.225159,490.928772 600.999756,487.445831 599.727295,484.473663 
	C597.523254,479.325195 596.468445,473.499207 590.489563,469.873993 
M612.623230,684.447510 
	C613.999207,683.863708 615.454895,683.417236 616.737549,682.672546 
	C622.550232,679.297607 625.720703,672.083679 624.132019,666.065247 
	C622.150696,658.559326 615.924072,653.450562 608.695129,653.399719 
	C602.116638,653.353455 595.742981,658.193848 593.848938,664.777222 
	C590.692017,675.750000 600.375244,686.976685 612.623230,684.447510 
M486.295410,656.103455 
	C485.420593,655.625488 484.584717,655.048950 483.664703,654.685303 
	C477.619659,652.295898 470.714233,653.881653 466.292236,658.625793 
	C462.068665,663.157043 461.136078,670.088928 463.972321,675.869751 
	C466.932983,681.904114 472.812683,685.282104 479.398773,684.732605 
	C485.779602,684.200256 490.903900,679.894531 492.936676,673.152588 
	C495.046722,666.154480 492.295227,660.838562 486.295410,656.103455 
M465.916534,488.645660 
	C464.372253,486.381256 462.827972,484.116882 461.283691,481.852509 
	C461.557526,485.459595 462.516724,488.635864 465.572662,490.671875 
	C467.459900,491.929230 468.894348,493.604645 466.735809,495.449036 
	C464.238922,497.582611 463.104095,500.048218 462.910828,503.210876 
	C462.826477,504.591431 462.091675,505.882935 460.514771,505.985077 
	C458.973022,506.084961 458.158264,504.969818 457.679779,503.617523 
	C457.030792,501.783386 456.722931,499.720978 453.700562,498.500336 
	C455.516876,501.161530 456.067230,503.492249 456.444000,505.920197 
	C456.780792,508.090607 457.746490,510.484436 460.351349,510.355469 
	C462.624023,510.242920 463.419556,507.985809 463.701324,505.948120 
	C464.141052,502.767944 464.746338,499.717926 467.054474,497.259827 
	C469.767303,494.370728 469.525909,491.638123 465.916534,488.645660 
z"/>
<path fill="#00a0a0" opacity="1.000000" stroke="none" 
	d="
M529.124390,588.685913 
	C529.316223,584.038208 527.121826,582.416077 523.143311,581.238464 
	C505.127197,575.905396 487.225983,570.182983 469.297241,564.556641 
	C463.092102,562.609375 462.987488,562.505127 465.346527,556.200928 
	C475.667725,528.619202 486.126007,501.088562 496.369720,473.478241 
	C497.832581,469.535339 499.547424,468.342316 503.733490,469.831848 
	C510.981750,472.410980 511.074860,472.166382 515.202820,465.888763 
	C519.435669,459.451569 524.339844,453.647766 530.403992,448.806763 
	C536.283142,444.113495 540.070129,443.701111 546.067688,448.373016 
	C554.723877,455.115875 561.634460,463.446472 566.268982,473.405975 
	C568.057495,477.249390 570.018250,477.923248 573.991150,476.899719 
	C587.261597,473.480927 587.313843,473.640442 591.942627,486.940125 
	C601.511902,514.435120 611.070251,541.933960 620.626953,569.433350 
	C620.889038,570.187439 621.082397,570.965332 621.502502,572.394653 
	C614.029724,574.124878 606.811157,575.773987 599.603455,577.469238 
	C578.078796,582.531616 556.539124,587.533325 535.054565,592.761169 
	C531.361938,593.659729 529.671753,592.695496 529.124390,588.685913 
M544.442566,468.101044 
	C542.638306,462.816406 543.261353,456.751343 539.536011,451.280151 
	C533.167725,458.968506 529.232239,466.993134 525.734558,475.613464 
	C532.412537,477.978058 538.525696,479.680573 544.865173,480.653961 
	C546.596680,476.360168 544.454224,472.690338 544.442566,468.101044 
M546.458130,463.184906 
	C547.030396,466.283813 547.824951,469.360504 548.136902,472.485352 
	C549.573975,486.882385 550.700073,482.494598 561.296265,480.209686 
	C564.491211,479.520691 565.248047,477.773499 563.736328,474.750458 
	C559.898499,467.075867 554.810120,460.381134 548.480774,454.620056 
	C547.681641,453.892670 546.851257,452.845490 545.355042,453.651917 
	C544.459534,456.643280 546.206787,459.410553 546.458130,463.184906 
M529.524963,460.111145 
	C531.021423,457.088135 533.665100,454.663086 534.048950,450.952667 
	C525.764160,456.242340 519.688660,463.376099 515.413025,472.184692 
	C521.015503,475.451721 521.794128,475.269196 524.204285,470.502045 
	C525.850037,467.246826 527.497437,463.992371 529.524963,460.111145 
z"/>
<path fill="#004a99" opacity="1.000000" stroke="none" 
	d="
M483.093811,451.060242 
	C484.844147,455.706512 487.298340,459.282959 491.417603,461.673340 
	C493.707001,463.001862 494.281891,465.140778 491.902557,466.883972 
	C487.207794,470.323486 485.621124,475.184357 484.878143,480.598541 
	C484.595337,482.659515 484.635254,485.504974 481.885406,485.645172 
	C479.159973,485.784180 478.825531,482.965424 478.358917,480.942535 
	C477.247986,476.126587 474.718964,472.544250 470.299133,470.184784 
	C467.506287,468.693878 466.083221,465.788788 468.969543,463.842926 
	C474.511017,460.107056 477.206848,455.007538 478.585205,448.825867 
	C478.678253,448.408661 479.194275,448.085724 479.475891,447.762238 
	C481.850555,447.437805 482.152679,449.367798 483.093811,451.060242 
z"/>
<path fill="#ff8c00" opacity="1.000000" stroke="none" 
	d="
M610.735168,499.263916 
	C611.526367,501.739166 614.247925,500.187988 615.489258,502.272217 
	C614.576660,504.589539 613.020935,506.972382 612.834656,509.822083 
	C612.769043,510.826660 611.951843,511.651123 610.853027,511.774994 
	C609.332458,511.946472 608.885437,510.766174 608.619629,509.622162 
	C607.889648,506.480103 606.703796,503.660950 603.981812,501.656281 
	C602.789124,500.777924 602.198425,499.141205 603.326599,498.192963 
	C606.286926,495.704803 606.979065,491.596802 610.109619,488.885651 
	C613.481750,492.273926 614.724243,495.425568 610.735168,499.263916 
z"/>
</svg>