<svg version="1.1" id="Layer_1" xmlns="http://www.w3.org/2000/svg" xmlns:xlink="http://www.w3.org/1999/xlink" x="0px" y="0px"
	 width="100%" viewBox="0 0 2000 2000" enable-background="new 0 0 2000 2000" xml:space="preserve">
<path fill="#FFFFFF" opacity="1.000000" stroke="none" 
	d="
M1112.000000,2001.000000 
	C741.333313,2001.000000 371.166656,2001.000000 1.000000,2001.000000 
	C1.000000,1334.333374 1.000000,667.666687 1.000000,1.000000 
	C667.666687,1.000000 1334.333374,1.000000 2001.000000,1.000000 
	C2001.000000,667.666687 2001.000000,1334.333374 2001.000000,2001.000000 
	C1704.833374,2001.000000 1408.666626,2001.000000 1112.000000,2001.000000 
M437.647705,1031.830444 
	C438.342590,1030.507324 439.061493,1029.196167 439.728973,1027.859375 
	C471.170532,964.889954 516.284180,913.882385 574.147034,873.974854 
	C585.357361,866.243103 596.298401,858.121033 608.022705,850.020569 
	C628.110107,839.376099 647.987000,828.304504 668.370483,818.261108 
	C679.137024,812.956299 690.786133,809.442749 702.826538,805.049072 
	C719.559814,801.197205 736.208557,796.909058 753.055664,793.644531 
	C764.569214,791.413452 776.359436,790.610107 788.775024,789.446533 
	C822.189758,784.870667 855.600708,784.886414 889.802917,789.852112 
	C902.309937,792.440613 915.153137,793.978943 927.249268,797.851074 
	C948.061768,804.513306 968.408752,812.629700 989.369446,820.688171 
	C1000.636658,826.942383 1012.131592,832.823486 1023.122925,839.529846 
	C1044.886230,852.808533 1064.312012,869.125061 1082.877808,887.392700 
	C1093.457520,899.245117 1104.037354,911.097534 1114.727783,923.073975 
	C1103.325562,925.263550 1093.163086,927.215027 1082.172485,929.022583 
	C1075.437256,926.588135 1068.197998,925.027039 1062.091797,921.502747 
	C1054.090454,916.884644 1047.235962,910.325562 1039.439209,905.297485 
	C1023.158508,894.798157 1006.583313,884.755310 989.628174,874.086060 
	C982.892273,871.271851 976.272949,868.128174 969.401428,865.697205 
	C926.567810,850.543152 886.112061,856.906982 845.971924,880.173157 
	C861.074646,883.306030 874.876282,885.885925 888.525513,889.110840 
	C896.209045,890.926270 903.887207,893.242310 911.104370,896.393982 
	C916.331665,898.676758 916.453308,902.985657 912.020874,906.634949 
	C908.985229,909.134338 905.366455,910.925415 901.263611,913.066162 
	C896.236816,914.700867 891.272827,916.571350 886.172180,917.928589 
	C866.137634,923.259949 845.612976,924.629211 824.072388,925.021790 
	C813.442993,924.488464 802.740234,924.560181 792.200928,923.283386 
	C775.439331,921.252625 758.786682,918.322632 741.522034,915.303162 
	C731.644043,911.916199 721.789490,908.457275 711.864746,905.213379 
	C710.214111,904.673950 707.651489,904.290100 706.533386,905.155823 
	C692.223877,916.235901 678.100769,927.556763 663.286133,939.043701 
	C647.838318,953.658508 632.354248,968.235413 617.002869,982.950806 
	C615.572144,984.322205 614.276855,986.507935 614.107239,988.420959 
	C611.638245,1016.269775 609.354065,1044.135010 607.061890,1071.999390 
	C604.251587,1106.162109 601.817627,1140.359985 598.597717,1174.483765 
	C594.515015,1217.751465 623.184509,1260.134033 665.756348,1271.985352 
	C690.294922,1278.150269 715.235107,1274.947144 740.912476,1275.463379 
	C764.469788,1275.491455 788.027039,1275.539673 811.584351,1275.529541 
	C816.047058,1275.527710 820.509583,1275.294922 825.869324,1275.461548 
	C842.457764,1275.490356 859.046265,1275.563599 875.634521,1275.528931 
	C883.746704,1275.512085 891.858521,1275.294800 900.868713,1275.460815 
	C910.491333,1275.489990 920.114258,1275.581543 929.736511,1275.532593 
	C941.500916,1275.472778 953.264709,1275.295288 965.912781,1275.463013 
	C994.956909,1275.491211 1024.000977,1275.525635 1053.045166,1275.531128 
	C1054.687988,1275.531494 1056.330933,1275.294556 1058.870850,1275.459839 
	C1077.649902,1275.488647 1096.428955,1275.574829 1115.207886,1275.528320 
	C1130.481934,1275.490479 1145.755615,1275.293579 1161.913696,1275.460938 
	C1201.453613,1275.489136 1240.993530,1275.519531 1280.533447,1275.529785 
	C1281.347290,1275.529907 1282.161011,1275.296875 1283.867798,1275.462158 
	C1286.866089,1275.490967 1289.864502,1275.546265 1292.862793,1275.544556 
	C1346.502808,1275.513184 1388.496094,1231.980835 1385.918823,1178.385010 
	C1384.824219,1155.619507 1382.474121,1132.910278 1380.431396,1110.199097 
	C1380.111206,1106.639282 1380.555786,1104.412109 1383.747192,1102.371948 
	C1388.062622,1099.613159 1391.945312,1096.177490 1396.668457,1092.845581 
	C1434.553711,1063.520020 1466.543457,1028.724976 1492.670410,988.609741 
	C1517.316895,950.767456 1548.253174,876.820374 1547.463013,858.326294 
	C1547.122925,858.845520 1546.814575,859.221619 1546.606934,859.646912 
	C1517.810303,918.652527 1476.974976,967.688904 1424.475098,1007.046570 
	C1414.644409,1014.416382 1404.685425,1021.614990 1394.128052,1029.048218 
	C1359.982666,1053.653076 1322.921265,1072.510010 1282.097290,1085.671265 
	C1266.471191,1089.452393 1251.016724,1094.378540 1235.179443,1096.750122 
	C1210.589844,1100.432251 1185.739746,1102.374634 1160.076416,1104.878784 
	C1134.130371,1105.683594 1108.349365,1104.235229 1082.824219,1099.250610 
	C1073.566895,1097.442871 1064.302368,1095.672119 1054.736694,1093.209595 
	C1051.904785,1092.285645 1049.093140,1091.293457 1046.237793,1090.448486 
	C1017.560547,1081.962646 990.679749,1069.452759 964.369202,1053.893066 
	C941.731201,1039.251221 920.466980,1022.878662 901.020935,1003.227600 
	C890.642700,991.528381 880.264404,979.829163 869.428223,967.613770 
	C881.671814,965.870483 892.335571,964.352112 903.845520,962.977356 
	C905.810791,963.213623 907.789795,963.369324 909.739014,963.700012 
	C918.511597,965.187988 924.623413,971.381592 931.619812,976.052917 
	C950.376953,988.576660 969.215759,1000.978149 988.566772,1013.952087 
	C1007.458252,1023.649353 1027.099365,1030.867798 1048.430054,1033.058228 
	C1079.550903,1036.254272 1107.957520,1028.065063 1134.846680,1013.129639 
	C1135.577515,1012.723694 1136.155151,1012.042175 1137.639771,1010.777161 
	C1122.896606,1007.729797 1109.030762,1005.132202 1095.308838,1001.919189 
	C1087.944458,1000.194824 1080.579590,997.974915 1073.678833,994.927734 
	C1068.295654,992.550720 1067.928833,988.601562 1072.300415,984.760986 
	C1075.774536,981.708984 1080.098877,979.624695 1084.813354,977.018188 
	C1094.237915,974.681152 1103.546509,971.255981 1113.111450,970.236389 
	C1132.342407,968.186340 1151.713135,967.448120 1171.912842,966.462402 
	C1184.483643,967.507019 1197.187134,967.747742 1209.592651,969.794373 
	C1226.069824,972.512878 1242.314453,976.639893 1259.172974,980.692932 
	C1263.652100,982.469055 1268.054932,984.493835 1272.647217,985.900513 
	C1274.519653,986.474060 1277.370972,986.486694 1278.815308,985.434509 
	C1308.332275,963.933289 1336.380859,940.687744 1361.709595,914.306335 
	C1362.992432,912.970093 1363.911011,910.529175 1363.771362,908.696045 
	C1361.837280,883.311096 1359.692993,857.942139 1357.590454,832.570068 
	C1354.731934,798.075134 1351.858643,763.581482 1349.004272,729.086243 
	C1346.520630,699.069702 1344.058105,669.051514 1341.579346,639.034546 
	C1338.716675,604.368652 1335.734497,569.712036 1333.025879,535.034119 
	C1331.634399,517.219788 1330.061279,499.546753 1321.116699,483.481842 
	C1309.484985,462.590393 1292.945923,447.530762 1269.671509,439.462494 
	C1269.114746,439.400940 1268.557861,439.339386 1267.406128,438.799896 
	C1264.937378,438.189056 1262.468750,437.578217 1259.346313,436.523895 
	C1256.411743,436.017181 1253.482178,435.102234 1250.541992,435.067505 
	C1224.031250,434.754364 1197.518921,434.595490 1170.086304,434.201141 
	C1160.164917,434.201141 1150.243652,434.201141 1140.000000,434.201141 
	C1140.000000,436.590790 1140.000000,438.398590 1140.000000,440.206360 
	C1139.999878,463.499725 1140.081543,486.793488 1139.977173,510.086395 
	C1139.870972,533.769592 1119.018066,551.182129 1095.752319,546.936401 
	C1091.412231,546.144409 1087.271240,544.260742 1082.821533,542.246521 
	C1069.704224,533.000610 1064.704224,520.200684 1065.048340,504.387360 
	C1065.515015,482.948212 1065.164307,461.491241 1065.164307,440.041931 
	C1065.164307,438.256683 1065.164429,436.471405 1065.164429,434.930817 
	C1064.383423,434.536499 1064.097046,434.265106 1063.810913,434.265442 
	C1039.210205,434.293945 1014.609558,434.343445 989.087769,434.201721 
	C959.300171,434.145844 929.512512,434.089996 899.537659,433.102600 
	C899.528564,408.775543 899.333130,384.446259 899.624329,360.122803 
	C899.711243,352.863922 900.482483,345.466492 902.096741,338.396667 
	C911.921021,295.369934 952.703430,262.387543 1001.214783,267.399841 
	C1049.387573,272.377197 1084.973145,312.059326 1084.996338,359.171814 
	C1085.008179,383.498962 1084.998291,407.826080 1084.998291,432.153229 
	C1084.998291,457.979980 1084.975708,483.806763 1085.011597,509.633453 
	C1085.022949,517.765137 1089.339355,524.218750 1096.307617,526.828369 
	C1108.279419,531.311707 1120.136353,522.818298 1120.149658,509.570068 
	C1120.199707,459.582855 1120.254272,409.595276 1120.079590,359.608612 
	C1120.052979,351.994659 1119.558838,344.233826 1118.031372,336.797607 
	C1107.828613,287.127808 1078.725220,253.006393 1030.503906,237.842697 
	C982.656006,222.796417 939.175720,233.674759 902.767456,268.345673 
	C876.830444,293.045044 864.483521,324.240509 864.195312,360.058807 
	C863.996887,384.715912 864.087402,409.375336 863.110535,434.143616 
	C838.075378,434.225891 813.040283,434.308136 787.084473,434.201721 
	C773.705688,434.345123 760.317505,434.867493 746.950500,434.536255 
	C730.155762,434.120026 714.611084,438.043304 699.319031,446.185028 
	C698.502747,446.755005 697.703613,447.351562 696.867737,447.891174 
	C670.411438,464.970337 655.466797,489.028351 652.831238,520.541260 
	C650.780396,545.062439 648.747131,569.585144 646.708496,594.107361 
	C643.801392,629.076050 640.887573,664.044189 637.994385,699.013977 
	C636.211670,720.562012 634.409912,742.108826 632.751587,763.666504 
	C632.494324,767.011169 631.049133,768.911072 628.233154,770.664001 
	C620.358643,775.565918 612.724548,780.854065 604.324219,786.138855 
	C527.331177,840.825500 473.823273,912.889893 444.444183,1002.690918 
	C441.316162,1012.252136 439.474884,1022.234436 436.463074,1032.153687 
	C436.470276,1032.596680 436.477478,1033.039551 436.484680,1033.482544 
	C436.637695,1032.968384 436.790710,1032.454346 437.647705,1031.830444 
M1409.771729,1480.821045 
	C1422.504761,1528.270264 1435.237793,1575.719482 1447.908203,1622.935547 
	C1461.953247,1622.935547 1475.260864,1622.935547 1488.739868,1622.935547 
	C1499.852783,1582.665161 1510.918213,1542.566772 1522.338379,1501.182983 
	C1533.299561,1542.742798 1543.877686,1582.850098 1554.403931,1622.761230 
	C1568.438599,1622.761230 1581.892578,1622.761230 1595.495850,1622.761230 
	C1611.485474,1565.510742 1627.423462,1508.444824 1643.459717,1451.027100 
	C1630.681152,1451.027100 1618.557617,1451.027100 1605.961304,1451.027100 
	C1595.945923,1494.500000 1585.924561,1537.998657 1575.903198,1581.497437 
	C1575.645020,1581.464722 1575.386841,1581.432007 1575.128662,1581.399292 
	C1564.310425,1537.912842 1553.492188,1494.426392 1542.687134,1450.992798 
	C1529.518921,1450.992798 1516.881836,1450.992798 1503.953979,1450.992798 
	C1492.512817,1494.628174 1481.092285,1538.184692 1469.671875,1581.741211 
	C1469.333130,1581.734741 1468.994385,1581.728271 1468.655762,1581.721802 
	C1458.735840,1538.085327 1448.815918,1494.448975 1438.989258,1451.222412 
	C1426.166260,1451.222412 1414.135010,1451.222412 1401.758301,1451.222412 
	C1404.424316,1461.132812 1406.968140,1470.589111 1409.771729,1480.821045 
M1176.168457,1524.500000 
	C1176.168457,1499.932129 1176.168457,1475.364258 1176.168457,1450.871582 
	C1164.212280,1450.871582 1152.986938,1450.871582 1141.160645,1450.871582 
	C1141.160645,1489.708984 1141.160645,1528.157104 1141.160645,1567.754639 
	C1139.413452,1565.200195 1138.379272,1563.732788 1137.390137,1562.235596 
	C1113.640015,1526.287598 1089.908569,1490.327393 1066.102783,1454.416382 
	C1065.086060,1452.882568 1063.423340,1450.715820 1062.009277,1450.675415 
	C1051.086182,1450.363525 1040.150146,1450.503662 1029.321289,1450.503662 
	C1029.321289,1508.358032 1029.321289,1565.583008 1029.321289,1622.742676 
	C1040.904785,1622.742676 1052.164062,1622.742676 1063.885742,1622.742676 
	C1063.885742,1584.136353 1063.885742,1545.784912 1063.885742,1506.059326 
	C1065.761230,1508.756470 1066.880249,1510.299316 1067.931274,1511.886841 
	C1091.622925,1547.673096 1115.293091,1583.473633 1139.041626,1619.222046 
	C1140.039429,1620.724121 1141.725952,1622.792603 1143.140137,1622.831543 
	C1154.068115,1623.132202 1165.007812,1622.997314 1176.168457,1622.997314 
	C1176.168457,1590.103882 1176.168457,1557.802002 1176.168457,1524.500000 
M1207.894287,1552.601807 
	C1215.524536,1602.479370 1265.858398,1634.753540 1316.627197,1622.367432 
	C1367.170532,1610.036499 1393.481689,1560.505371 1379.318237,1510.100220 
	C1368.637817,1472.089722 1334.943481,1448.232910 1293.046997,1448.514648 
	C1240.994507,1448.864624 1198.610474,1493.402466 1207.894287,1552.601807 
M834.405945,1577.902588 
	C843.793823,1559.396729 846.046936,1539.787231 842.478333,1519.601807 
	C833.745239,1470.203491 787.009277,1439.326172 735.424988,1450.639893 
	C685.552307,1461.578491 657.287231,1509.881714 670.677185,1561.248169 
	C679.758972,1596.087524 708.229370,1619.577026 745.709351,1624.267700 
	C782.099182,1628.822021 817.055237,1610.745361 834.405945,1577.902588 
M505.522339,1623.000488 
	C513.277893,1623.000488 521.033508,1623.000488 529.284363,1623.000488 
	C529.284363,1598.240479 529.284363,1574.187378 529.284363,1550.319092 
	C553.900452,1550.319092 578.000732,1550.319092 602.672791,1550.319092 
	C602.672791,1574.679932 602.672791,1598.726562 602.672791,1622.624756 
	C614.494324,1622.624756 625.736328,1622.624756 636.764221,1622.624756 
	C636.764221,1565.195435 636.764221,1508.142578 636.764221,1451.054443 
	C625.247803,1451.054443 614.125793,1451.054443 602.361816,1451.054443 
	C602.361816,1474.475464 602.361816,1497.694214 602.361816,1521.157349 
	C577.650146,1521.157349 553.582520,1521.157349 528.972839,1521.157349 
	C528.972839,1497.693604 528.972839,1474.463135 528.972839,1451.106934 
	C517.184448,1451.106934 505.939453,1451.106934 494.425537,1451.106934 
	C494.425537,1508.415894 494.425537,1565.460693 494.425537,1623.000488 
	C497.950531,1623.000488 501.240936,1623.000488 505.522339,1623.000488 
M339.347443,1594.009033 
	C343.926208,1599.644409 347.555420,1606.605347 353.249146,1610.684448 
	C377.127777,1627.791992 403.455231,1629.579712 429.987244,1618.365601 
	C450.334900,1609.765381 460.358917,1592.960815 459.760742,1570.705688 
	C459.190033,1549.471191 446.640320,1536.995239 427.819000,1529.885620 
	C419.118713,1526.599121 410.091888,1524.178345 401.385376,1520.906494 
	C393.953796,1518.113770 386.474182,1515.197021 379.553802,1511.363647 
	C372.023132,1507.192139 370.489349,1499.813721 372.178864,1491.815430 
	C373.801544,1484.133301 379.059479,1479.811401 386.422546,1478.083740 
	C402.938843,1474.208252 414.293945,1480.798096 420.195312,1497.570923 
	C432.563599,1497.570923 444.980713,1497.570923 457.791168,1497.570923 
	C456.635803,1482.421631 450.961761,1470.019287 438.886871,1460.940552 
	C417.092834,1444.554199 377.213928,1443.961304 354.893860,1459.765991 
	C339.920166,1470.368896 334.250031,1485.304443 335.452423,1503.179443 
	C336.666229,1521.224121 346.599121,1533.133911 362.731476,1539.909424 
	C372.205536,1543.888428 382.252441,1546.480469 391.887421,1550.106201 
	C400.077118,1553.187988 408.829437,1555.702026 415.937653,1560.523926 
	C428.119354,1568.787354 426.078827,1586.118896 413.001801,1592.991455 
	C395.172455,1602.361694 376.571838,1594.013184 372.049622,1574.623657 
	C371.946442,1574.181274 371.640625,1573.786255 371.523468,1573.554932 
	C359.267090,1573.554932 347.213226,1573.554932 333.761749,1573.554932 
	C335.648560,1580.621338 337.343109,1586.967651 339.347443,1594.009033 
M919.525696,1557.002563 
	C932.464478,1556.328613 945.756714,1557.328003 958.278992,1554.682617 
	C1005.283020,1544.752563 1008.370422,1494.029907 988.630493,1470.775513 
	C976.692993,1456.712769 960.577332,1451.481934 942.825134,1451.095947 
	C921.341064,1450.628906 899.841125,1450.887207 878.348022,1450.854858 
	C877.076477,1450.853027 875.804688,1451.059326 874.488037,1451.172485 
	C874.488037,1508.576538 874.488037,1565.625977 874.488037,1622.741089 
	C886.079285,1622.741089 897.332764,1622.741089 909.103027,1622.741089 
	C909.103027,1600.762573 909.103027,1579.039062 909.103027,1557.002563 
	C912.592224,1557.002563 915.564941,1557.002563 919.525696,1557.002563 
M1462.146606,1699.520142 
	C1463.557251,1691.782227 1464.968018,1684.044312 1466.658691,1674.770996 
	C1468.101685,1677.554932 1468.865234,1678.911133 1469.522949,1680.316895 
	C1472.331787,1686.322144 1475.017212,1692.388062 1477.984619,1698.313110 
	C1478.504517,1699.351440 1480.089355,1700.144775 1481.321167,1700.412476 
	C1481.908691,1700.540161 1483.357056,1699.268066 1483.506104,1698.461670 
	C1485.459229,1687.895020 1487.249512,1677.298096 1489.082275,1666.699829 
	C1485.325439,1665.246948 1484.440918,1666.953735 1483.981934,1669.952637 
	C1482.903809,1676.999878 1481.556641,1684.006226 1480.318359,1691.029053 
	C1476.028076,1683.969238 1472.921997,1676.844727 1469.454834,1669.900391 
	C1468.670776,1668.330078 1466.631714,1667.386353 1465.170410,1666.154053 
	C1464.387939,1667.574097 1463.232910,1668.910767 1462.892334,1670.429810 
	C1461.840332,1675.123047 1461.058105,1679.878906 1460.247437,1684.623413 
	C1459.366211,1689.781860 1458.570312,1694.954712 1457.664062,1700.575195 
	C1459.501709,1700.402100 1460.608765,1700.297852 1462.146606,1699.520142 
M600.312195,1693.021240 
	C601.346863,1687.417969 602.381531,1681.814697 603.416199,1676.211426 
	C607.396484,1682.258423 610.049927,1688.479980 613.148987,1694.471069 
	C614.363831,1696.819580 614.252686,1701.436401 618.446533,1700.250977 
	C619.909058,1699.837646 620.423584,1696.052490 621.355469,1693.800781 
	C621.481262,1693.496704 621.532959,1693.157837 621.588989,1692.829834 
	C623.088867,1684.045898 624.584778,1675.261108 626.227600,1665.618530 
	C618.553467,1667.367310 621.166016,1673.390259 619.979797,1677.224976 
	C618.597900,1681.692261 618.122131,1686.439697 616.972412,1692.560059 
	C612.858032,1683.584961 609.499695,1676.015137 605.861816,1668.582153 
	C605.306702,1667.447876 603.511841,1666.512085 602.184021,1666.348511 
	C601.583679,1666.274658 600.322876,1668.227905 600.053284,1669.418091 
	C599.171814,1673.308960 598.600037,1677.270386 597.924744,1681.207397 
	C596.842224,1687.517334 595.772156,1693.829468 594.673767,1700.276245 
	C601.232300,1701.256592 599.108582,1696.382324 600.312195,1693.021240 
M467.920593,1684.194824 
	C466.998260,1689.505249 466.075928,1694.815552 465.141266,1700.196777 
	C469.466187,1700.309692 469.498993,1700.315796 470.104828,1697.031372 
	C471.430115,1689.846680 472.718689,1682.655151 474.243530,1674.246216 
	C478.199036,1682.822510 481.666534,1690.142822 484.943604,1697.547363 
	C486.186401,1700.355225 487.817657,1701.406982 490.822693,1699.928223 
	C492.730347,1688.889160 494.644928,1677.810059 496.559509,1666.730957 
	C496.088898,1666.358032 495.618286,1665.985107 495.147675,1665.612183 
	C494.026184,1666.749512 492.185944,1667.732056 491.902222,1669.049683 
	C490.306061,1676.462036 489.084564,1683.955200 487.503845,1692.701294 
	C483.543365,1684.012939 480.120087,1676.655518 476.842957,1669.233765 
	C475.643280,1666.517090 474.077606,1665.233032 470.976715,1666.716553 
	C469.990936,1672.224365 468.996979,1677.777954 467.920593,1684.194824 
M1019.938721,1673.456421 
	C1017.712463,1670.912354 1018.689270,1664.874390 1012.201660,1666.503418 
	C1010.261719,1677.770508 1008.336975,1688.949463 1006.412292,1700.128418 
	C1006.992554,1700.471680 1007.572876,1700.814941 1008.153137,1701.158081 
	C1009.190918,1699.909912 1010.857910,1698.797241 1011.160767,1697.390869 
	C1012.722107,1690.140259 1013.933533,1682.814453 1015.500549,1674.236938 
	C1019.487915,1682.908447 1022.743347,1690.339233 1026.365234,1697.586792 
	C1027.147095,1699.151367 1029.249390,1700.056152 1031.680664,1702.023071 
	C1033.941162,1689.058960 1035.893311,1677.863403 1037.848633,1666.649536 
	C1034.573975,1665.545166 1033.304810,1666.319092 1032.845459,1669.514282 
	C1031.788086,1676.868652 1030.311401,1684.162720 1028.806885,1692.590698 
	C1025.633301,1685.790771 1022.919861,1679.976685 1019.938721,1673.456421 
M1347.130005,1666.135132 
	C1343.836792,1666.135132 1340.543579,1666.135132 1337.051270,1666.135132 
	C1335.040527,1677.709961 1333.095337,1688.907471 1331.150024,1700.104980 
	C1331.744995,1700.348511 1332.339966,1700.592041 1332.934814,1700.835571 
	C1339.019165,1698.442139 1335.290527,1690.905884 1338.364014,1687.299072 
	C1344.408447,1685.326416 1347.296021,1687.822510 1348.157715,1693.498901 
	C1348.352783,1694.784424 1349.199951,1695.960815 1349.480957,1697.245605 
	C1350.170044,1700.397827 1351.879150,1701.348022 1355.239746,1699.928711 
	C1353.593140,1695.304443 1351.953735,1690.700806 1350.277832,1685.994263 
	C1355.950928,1683.223877 1359.057129,1679.143555 1357.831665,1673.052368 
	C1356.799438,1667.921631 1352.539429,1666.678345 1347.130005,1666.135132 
M1086.086182,1687.136230 
	C1086.622559,1684.960327 1086.815552,1683.130981 1083.554932,1683.397827 
	C1081.242920,1683.587158 1078.853638,1683.161987 1076.598022,1683.565308 
	C1075.511597,1683.759644 1074.653809,1685.233032 1072.833130,1686.926636 
	C1076.567017,1687.167114 1078.786133,1687.309937 1081.084473,1687.457886 
	C1081.078857,1691.956543 1081.167603,1696.055176 1075.747803,1696.931152 
	C1071.721558,1697.582031 1068.034058,1697.255493 1066.076782,1692.911255 
	C1063.727173,1687.696411 1065.937744,1676.263916 1070.040649,1672.255493 
	C1074.446655,1667.950928 1080.240112,1668.870850 1083.193970,1674.061646 
	C1083.896240,1675.295776 1085.807007,1675.842285 1088.225586,1677.382568 
	C1087.322632,1671.081055 1085.280518,1667.386841 1080.544434,1666.232300 
	C1074.821289,1664.837402 1069.526367,1666.066040 1065.768066,1670.940918 
	C1060.897827,1677.258301 1059.900269,1684.641113 1061.280518,1692.229614 
	C1062.293701,1697.799561 1066.701172,1700.896484 1072.438110,1701.022705 
	C1081.404297,1701.220215 1084.502075,1698.232788 1086.086182,1687.136230 
M801.983887,1666.154663 
	C800.828613,1667.130249 798.984802,1667.911987 798.645508,1669.117432 
	C797.579773,1672.904419 797.079895,1676.850708 796.348816,1680.800293 
	C790.718140,1680.800293 785.429016,1680.800293 779.906677,1680.800293 
	C780.663940,1675.905396 781.389771,1671.213745 782.115540,1666.522217 
	C781.731873,1666.201294 781.348145,1665.880249 780.964417,1665.559326 
	C779.804077,1666.458740 777.821838,1667.198120 777.610596,1668.282349 
	C775.555664,1678.832153 773.797119,1689.439819 771.876770,1700.474854 
	C773.542969,1700.386719 775.516479,1700.574829 775.612854,1700.233276 
	C777.028320,1695.218506 778.193787,1690.133301 779.399292,1685.145020 
	C784.872620,1685.145020 790.114868,1685.145020 795.592163,1685.145020 
	C794.769287,1690.312988 793.995300,1695.173584 793.218628,1700.051025 
	C797.448792,1700.402954 797.476074,1700.408081 798.075684,1697.179810 
	C798.956177,1692.439697 799.911316,1687.709106 800.617371,1682.942139 
	C801.435730,1677.417847 802.018921,1671.858765 801.983887,1666.154663 
M442.527557,1679.535156 
	C441.492096,1670.353882 438.880371,1666.631836 432.953583,1665.891235 
	C425.876801,1665.006714 419.757324,1668.854370 417.054718,1676.638916 
	C415.776276,1680.321533 415.189026,1684.385986 415.078491,1688.299805 
	C414.902618,1694.526245 417.930725,1698.892456 422.663696,1700.486084 
	C427.838867,1702.228516 434.616302,1700.411133 437.459503,1695.194458 
	C439.913422,1690.692261 440.802429,1685.336914 442.527557,1679.535156 
M829.039612,1674.680298 
	C828.071716,1679.186035 826.485596,1683.664307 826.284424,1688.203979 
	C826.000000,1694.620117 829.434631,1699.220337 834.280334,1700.644409 
	C839.500793,1702.178589 845.689819,1699.894531 849.110901,1694.937500 
	C853.053711,1689.224365 854.489136,1682.769531 853.373413,1675.987549 
	C851.686218,1665.731445 841.338196,1662.173462 833.458679,1669.042358 
	C831.866638,1670.430054 830.736450,1672.347412 829.039612,1674.680298 
M1422.737549,1666.134155 
	C1419.017334,1665.550903 1416.781250,1666.494141 1416.731445,1670.896973 
	C1416.699951,1673.672974 1415.709229,1676.429932 1415.238892,1679.210571 
	C1414.061401,1686.170166 1412.935547,1693.138672 1411.713013,1700.565186 
	C1418.361694,1700.565186 1424.330811,1700.698242 1430.283813,1700.445923 
	C1431.387939,1700.399048 1432.426392,1698.799316 1433.495117,1697.916260 
	C1433.183105,1697.473755 1432.871094,1697.031250 1432.559082,1696.588745 
	C1427.478882,1696.588745 1422.398682,1696.588745 1416.844238,1696.588745 
	C1417.569702,1692.464966 1418.214478,1688.800415 1418.766968,1685.660522 
	C1423.893188,1683.094482 1430.241577,1687.740723 1435.029541,1680.992188 
	C1429.123047,1680.992188 1424.535400,1680.992188 1419.587036,1680.992188 
	C1420.235840,1677.120850 1420.802979,1673.737061 1421.404297,1670.148438 
	C1426.984253,1670.148438 1432.271118,1670.148438 1437.896973,1670.148438 
	C1437.896973,1668.690674 1437.896973,1667.495361 1437.896973,1666.134155 
	C1432.963623,1666.134155 1428.320801,1666.134155 1422.737549,1666.134155 
M1294.173950,1680.950317 
	C1294.173950,1677.344604 1294.173950,1673.738770 1294.173950,1670.023926 
	C1298.762695,1670.023926 1301.958496,1670.326538 1305.064087,1669.927002 
	C1307.502197,1669.613403 1311.821899,1672.194702 1311.831299,1666.343140 
	C1304.854370,1666.343140 1298.076782,1666.343140 1291.051758,1666.343140 
	C1289.098267,1677.650635 1287.160889,1688.864014 1285.219482,1700.101562 
	C1299.563599,1701.849854 1305.726440,1700.993896 1306.704834,1696.735474 
	C1301.385498,1696.735474 1296.165405,1696.735474 1290.376831,1696.735474 
	C1291.109131,1692.436768 1291.733032,1688.774292 1292.398804,1684.865845 
	C1295.630371,1684.865845 1298.442017,1684.868042 1301.253662,1684.865356 
	C1306.706055,1684.860229 1306.706055,1684.859131 1306.513550,1680.973511 
	C1302.705811,1680.973511 1298.886108,1680.973511 1294.173950,1680.950317 
M737.971252,1669.875122 
	C741.951172,1669.177979 745.173462,1669.655762 746.645142,1674.274902 
	C746.990967,1675.360229 748.965393,1675.926514 750.760803,1677.106323 
	C751.292908,1671.661133 749.435913,1668.648560 745.843628,1666.985107 
	C741.141846,1664.807861 736.376221,1665.250366 732.145447,1668.282837 
	C726.399048,1672.401855 726.631714,1679.367432 732.671570,1683.048950 
	C735.046692,1684.496582 737.867920,1685.191406 740.397278,1686.412720 
	C743.508545,1687.915039 745.507996,1690.603027 743.003418,1693.510498 
	C741.335144,1695.447266 738.043274,1696.822632 735.452576,1696.864380 
	C733.352539,1696.898193 729.998901,1695.002441 729.356628,1693.196167 
	C728.164490,1689.843750 726.717651,1690.142578 724.326111,1690.976440 
	C725.569519,1698.352051 730.328369,1701.795044 737.808044,1700.961426 
	C744.603394,1700.204224 748.722961,1695.938354 748.177429,1689.986450 
	C747.606079,1683.752686 742.319092,1682.750000 737.843872,1680.638672 
	C735.834778,1679.690796 733.003784,1677.509521 733.040771,1675.947021 
	C733.088074,1673.951050 735.657471,1672.014893 737.971252,1669.875122 
M1571.548828,1680.975342 
	C1570.585693,1680.902710 1569.622559,1680.829956 1568.362671,1680.734863 
	C1569.000977,1677.032593 1569.604492,1673.532104 1570.209595,1670.021973 
	C1575.290649,1670.021973 1579.784424,1670.184570 1584.250244,1669.901855 
	C1585.299927,1669.835327 1586.254395,1668.264771 1587.252686,1667.386108 
	C1586.956299,1667.043945 1586.660034,1666.701660 1586.363770,1666.359497 
	C1579.757690,1666.359497 1573.151611,1666.359497 1566.283325,1666.359497 
	C1564.332520,1677.716187 1562.412109,1688.895874 1560.407715,1700.564209 
	C1567.099731,1700.564209 1573.060303,1700.700562 1579.004028,1700.445068 
	C1580.146240,1700.395874 1581.222290,1698.807617 1582.328979,1697.929321 
	C1582.029541,1697.550171 1581.730103,1697.170898 1581.430786,1696.791748 
	C1578.939453,1696.791748 1576.448242,1696.791748 1573.957031,1696.791748 
	C1571.362549,1696.791748 1568.767944,1696.791748 1566.221313,1696.791748 
	C1565.943604,1685.124756 1566.174438,1684.871216 1576.512451,1684.865967 
	C1577.343872,1684.865601 1578.302246,1685.132202 1578.979736,1684.809326 
	C1580.328369,1684.166382 1581.522461,1683.199219 1582.780396,1682.365967 
	C1582.506348,1681.902710 1582.232300,1681.439331 1581.958252,1680.975952 
	C1578.812988,1680.975952 1575.667847,1680.975952 1571.548828,1680.975342 
M1157.236816,1696.791748 
	C1153.839844,1696.791748 1150.442871,1696.791748 1147.050537,1696.791748 
	C1147.338257,1684.894043 1147.338257,1684.893921 1158.235962,1684.866089 
	C1158.901245,1684.864380 1159.695312,1685.099854 1160.206665,1684.819092 
	C1161.505127,1684.106201 1162.677002,1683.162842 1163.899414,1682.311646 
	C1163.668823,1681.821289 1163.438232,1681.331055 1163.207642,1680.840698 
	C1158.676270,1680.840698 1154.144897,1680.840698 1149.326538,1680.840698 
	C1150.014648,1676.922485 1150.605713,1673.557007 1151.226440,1670.022949 
	C1156.075562,1670.022949 1160.560425,1670.191772 1165.016602,1669.909180 
	C1166.189941,1669.834717 1167.274780,1668.364624 1168.400269,1667.535400 
	C1168.121826,1667.173950 1167.843384,1666.812378 1167.564941,1666.450928 
	C1160.829834,1666.450928 1154.094727,1666.450928 1147.265259,1666.450928 
	C1145.308594,1677.821411 1143.402222,1688.900146 1141.395996,1700.558838 
	C1148.078857,1700.558838 1154.194458,1700.680908 1160.296021,1700.443970 
	C1161.371460,1700.402222 1162.388428,1698.858887 1163.432251,1698.008911 
	C1163.152100,1697.603149 1162.871826,1697.197510 1162.591675,1696.791748 
	C1161.112549,1696.791748 1159.633545,1696.791748 1157.236816,1696.791748 
M673.838257,1666.639160 
	C667.085876,1666.639160 660.333496,1666.639160 653.243774,1666.639160 
	C651.339905,1677.699219 649.414978,1688.881836 647.403992,1700.564575 
	C654.083069,1700.564575 660.044617,1700.701416 665.989319,1700.446045 
	C667.138916,1700.396606 668.222595,1698.814087 669.336731,1697.938721 
	C669.039307,1697.479492 668.741943,1697.020264 668.444519,1696.561035 
	C663.360840,1696.561035 658.277161,1696.561035 653.220398,1696.561035 
	C652.932617,1685.142212 653.179199,1684.871094 663.513550,1684.865967 
	C664.345276,1684.865479 665.304077,1685.132324 665.981750,1684.809204 
	C667.325806,1684.168335 668.514832,1683.202148 669.767883,1682.370483 
	C669.497131,1681.874756 669.226440,1681.379028 668.955688,1680.883301 
	C664.524780,1680.883301 660.093872,1680.883301 655.336609,1680.883301 
	C656.006104,1677.001587 656.609375,1673.503662 657.209595,1670.023438 
	C662.161072,1670.023438 666.492615,1670.190796 670.794861,1669.909668 
	C671.918396,1669.836304 672.950745,1668.366821 673.838257,1666.639160 
M1195.722656,1666.512329 
	C1194.278198,1666.369751 1192.833862,1666.227295 1190.698486,1666.016479 
	C1192.584839,1670.052246 1193.889282,1673.652710 1195.853760,1676.847290 
	C1198.504395,1681.157593 1198.185425,1684.524902 1194.610962,1688.246704 
	C1191.222900,1691.774658 1188.523560,1695.964111 1184.955566,1700.597290 
	C1194.689209,1700.866333 1195.011230,1691.076538 1201.050171,1688.072632 
	C1202.340332,1690.826904 1203.681152,1693.486084 1204.841064,1696.222046 
	C1206.046753,1699.066650 1207.124634,1701.905884 1211.523804,1699.877563 
	C1209.715698,1696.050781 1208.177002,1692.208862 1206.141724,1688.650879 
	C1204.074341,1685.036743 1204.098755,1682.254761 1207.134155,1679.026123 
	C1210.697388,1675.235962 1213.610352,1670.834595 1217.291504,1666.068970 
	C1207.611572,1665.771118 1207.339233,1675.469971 1201.379395,1678.402832 
	C1199.619019,1674.648560 1197.865479,1670.908813 1195.722656,1666.512329 
M925.315186,1699.128784 
	C928.694092,1701.298828 929.311401,1701.139282 930.036865,1697.748657 
	C930.786560,1694.244751 931.447632,1690.721680 932.179504,1687.046143 
	C936.188477,1687.046143 939.704407,1687.355103 943.145691,1686.979492 
	C949.569580,1686.278687 953.549988,1681.303345 953.198059,1674.963135 
	C952.898682,1669.571411 949.136169,1666.383667 942.574158,1666.160889 
	C938.800720,1666.032715 935.019348,1666.137573 931.103088,1666.137573 
	C929.183594,1677.150757 927.334717,1687.758545 925.315186,1699.128784 
M1249.152588,1687.208496 
	C1252.088745,1686.783081 1255.210938,1686.848877 1257.919678,1685.822876 
	C1262.574097,1684.059937 1264.890137,1679.077515 1264.082031,1673.918579 
	C1263.271973,1668.747559 1259.611206,1666.651611 1254.959229,1666.272461 
	C1250.726318,1665.927490 1246.443115,1666.199585 1242.081909,1666.199585 
	C1240.073364,1677.775024 1238.149170,1688.864380 1236.160645,1700.324097 
	C1237.717041,1700.324097 1239.703735,1700.602051 1239.805298,1700.282104 
	C1241.169556,1695.980713 1242.271118,1691.596069 1243.444092,1687.208252 
	C1245.244507,1687.208252 1246.741943,1687.208252 1249.152588,1687.208496 
M894.048218,1666.140625 
	C890.102905,1666.140625 886.157532,1666.140625 882.095581,1666.140625 
	C880.084900,1677.715332 878.156128,1688.818726 876.154297,1700.342651 
	C877.662842,1700.342651 879.640747,1700.623779 879.745239,1700.300171 
	C881.132507,1696.002808 882.256958,1691.620483 883.482483,1687.129395 
	C886.855286,1687.129395 890.031067,1687.308960 893.179443,1687.091431 
	C899.482605,1686.655762 903.652710,1682.653809 904.137207,1676.866821 
	C904.649780,1670.743164 902.197693,1667.903687 894.048218,1666.140625 
M1519.344116,1668.736206 
	C1513.018311,1674.088135 1511.807739,1681.390015 1511.931519,1689.026367 
	C1512.046143,1696.107910 1516.060547,1700.603394 1522.070068,1701.018311 
	C1529.337280,1701.520020 1534.845825,1697.172119 1535.541748,1689.413818 
	C1533.740479,1690.244873 1532.471680,1691.756714 1530.877930,1692.742676 
	C1528.229858,1694.380493 1525.489380,1696.336182 1522.556763,1696.857056 
	C1521.006592,1697.132446 1518.241455,1695.067383 1517.286621,1693.355347 
	C1514.367188,1688.120972 1517.411987,1675.449463 1522.034546,1671.613892 
	C1526.635376,1667.796753 1532.014771,1669.342285 1534.317261,1674.815186 
	C1534.848145,1676.077148 1536.859131,1676.716431 1539.059082,1678.248047 
	C1537.648438,1666.203979 1529.761230,1662.772095 1519.344116,1668.736206 
M537.971375,1699.911743 
	C539.285034,1697.466309 538.378479,1696.690552 535.813293,1696.761230 
	C531.718201,1696.874146 527.617737,1696.791260 523.102234,1696.791260 
	C524.883240,1686.197144 526.543457,1676.321533 528.203735,1666.445801 
	C527.728455,1666.135498 527.253174,1665.825195 526.777893,1665.514893 
	C525.665588,1666.473633 523.779724,1667.282959 523.561462,1668.414185 
	C521.528870,1678.948730 519.782898,1689.538452 517.893677,1700.459839 
	C524.782593,1700.459839 531.082275,1700.459839 537.971375,1699.911743 
M1385.626221,1667.109131 
	C1383.658081,1678.134277 1381.690063,1689.159424 1379.721924,1700.184570 
	C1380.284668,1700.505371 1380.847412,1700.826294 1381.410156,1701.147217 
	C1382.517944,1700.009521 1384.015625,1699.048706 1384.632446,1697.688354 
	C1385.361450,1696.080933 1385.323120,1694.127319 1385.628662,1692.325806 
	C1387.088623,1683.717407 1388.552490,1675.109741 1390.079346,1666.122803 
	C1388.325195,1666.260498 1387.209229,1666.348022 1385.626221,1667.109131 
M981.077637,1687.824097 
	C982.309814,1680.820435 983.542053,1673.816772 985.053772,1665.224487 
	C982.704468,1666.455078 980.416016,1666.949219 980.240784,1667.853149 
	C978.164185,1678.560303 976.403076,1689.328613 974.559143,1700.080933 
	C975.088135,1700.439575 975.617188,1700.798096 976.146179,1701.156738 
	C977.240967,1699.944702 978.866943,1698.901855 979.318359,1697.484985 
	C980.218445,1694.659302 980.473694,1691.628296 981.077637,1687.824097 
M571.904541,1673.598389 
	C572.234924,1671.206665 572.565369,1668.814819 572.895752,1666.423096 
	C572.521179,1666.126099 572.146545,1665.828979 571.771973,1665.531982 
	C570.588562,1666.450928 568.563843,1667.208862 568.352417,1668.313843 
	C566.335632,1678.856445 564.625854,1689.457642 562.836121,1699.993286 
	C566.972168,1701.573486 567.483093,1699.222290 567.934265,1696.525146 
	C569.166504,1689.158813 570.502686,1681.809814 571.904541,1673.598389 
z"/>
<path fill="#E40160" opacity="1.000000" stroke="none" 
	d="
M1258.658936,980.161743 
	C1242.314453,976.639893 1226.069824,972.512878 1209.592651,969.794373 
	C1197.187134,967.747742 1184.483643,967.507019 1171.459839,965.903503 
	C1171.006958,788.360229 1171.006958,611.375793 1171.006958,434.391357 
	C1197.518921,434.595490 1224.031250,434.754364 1250.541992,435.067505 
	C1253.482178,435.102234 1256.411743,436.017181 1259.673096,437.216553 
	C1260.000000,616.490417 1260.004639,795.071533 1259.944214,973.652710 
	C1259.943481,975.822510 1259.105957,977.992065 1258.658936,980.161743 
z"/>
<path fill="#EB005D" opacity="1.000000" stroke="none" 
	d="
M1258.916016,980.427368 
	C1259.105957,977.992065 1259.943481,975.822510 1259.944214,973.652710 
	C1260.004639,795.071533 1260.000000,616.490417 1260.000000,437.438293 
	C1262.468750,437.578217 1264.937378,438.189056 1267.752319,439.316223 
	C1268.746460,439.850159 1269.394409,439.867828 1270.042358,439.885498 
	C1292.945923,447.530762 1309.484985,462.590393 1321.116699,483.481842 
	C1330.061279,499.546753 1331.634399,517.219788 1333.025879,535.034119 
	C1335.734497,569.712036 1338.716675,604.368652 1341.579346,639.034546 
	C1344.058105,669.051514 1346.520630,699.069702 1349.004272,729.086243 
	C1351.858643,763.581482 1354.731934,798.075134 1357.590454,832.570068 
	C1359.692993,857.942139 1361.837280,883.311096 1363.771362,908.696045 
	C1363.911011,910.529175 1362.992432,912.970093 1361.709595,914.306335 
	C1336.380859,940.687744 1308.332275,963.933289 1278.815308,985.434509 
	C1277.370972,986.486694 1274.519653,986.474060 1272.647217,985.900513 
	C1268.054932,984.493835 1263.652100,982.469055 1258.916016,980.427368 
z"/>
<path fill="#DD0163" opacity="1.000000" stroke="none" 
	d="
M1170.546631,434.296265 
	C1171.006958,611.375793 1171.006958,788.360229 1171.016602,965.756592 
	C1151.713135,967.448120 1132.342407,968.186340 1113.111450,970.236389 
	C1103.546509,971.255981 1094.237915,974.681152 1084.261963,976.672729 
	C1083.473877,974.377869 1083.039917,972.429321 1083.031616,970.478943 
	C1082.972290,956.708313 1083.000488,942.937378 1083.000732,929.166504 
	C1093.163086,927.215027 1103.325562,925.263550 1114.727783,923.073975 
	C1104.037354,911.097534 1093.457520,899.245117 1082.856689,886.637817 
	C1083.223755,882.268433 1083.948975,878.654175 1083.950928,875.039551 
	C1084.011230,767.273376 1084.007568,659.507202 1083.959473,551.741028 
	C1083.958252,548.787537 1083.358887,545.834229 1083.038330,542.880859 
	C1087.271240,544.260742 1091.412231,546.144409 1095.752319,546.936401 
	C1119.018066,551.182129 1139.870972,533.769592 1139.977173,510.086395 
	C1140.081543,486.793488 1139.999878,463.499725 1140.000000,440.206360 
	C1140.000000,438.398590 1140.000000,436.590790 1140.000000,434.201141 
	C1150.243652,434.201141 1160.164917,434.201141 1170.546631,434.296265 
z"/>
<path fill="#D60165" opacity="1.000000" stroke="none" 
	d="
M1082.929932,542.563721 
	C1083.358887,545.834229 1083.958252,548.787537 1083.959473,551.741028 
	C1084.007568,659.507202 1084.011230,767.273376 1083.950928,875.039551 
	C1083.948975,878.654175 1083.223755,882.268433 1082.711670,886.361145 
	C1064.312012,869.125061 1044.886230,852.808533 1023.122925,839.529846 
	C1012.131592,832.823486 1000.636658,826.942383 989.183167,819.980042 
	C989.331299,816.155151 989.956787,813.038513 989.958130,809.921631 
	C990.010315,684.744934 990.005920,559.568176 990.008911,434.391449 
	C1014.609558,434.343445 1039.210205,434.293945 1063.810913,434.265442 
	C1064.097046,434.265106 1064.383423,434.536499 1065.164429,434.930817 
	C1065.164429,436.471405 1065.164307,438.256683 1065.164307,440.041931 
	C1065.164307,461.491241 1065.515015,482.948212 1065.048340,504.387360 
	C1064.704224,520.200684 1069.704224,533.000610 1082.929932,542.563721 
z"/>
<path fill="#CE0168" opacity="1.000000" stroke="none" 
	d="
M989.548340,434.296570 
	C990.005920,559.568176 990.010315,684.744934 989.958130,809.921631 
	C989.956787,813.038513 989.331299,816.155151 988.973999,819.703857 
	C968.408752,812.629700 948.061768,804.513306 927.249268,797.851074 
	C915.153137,793.978943 902.309937,792.440613 889.402771,789.253418 
	C888.999573,670.716980 888.996521,552.779175 889.429321,434.761353 
	C892.756470,434.743164 895.647705,434.805084 898.828613,434.832214 
	C899.371826,434.522797 899.625366,434.248199 899.849243,434.011292 
	C899.819580,434.048920 899.724915,434.034119 899.724915,434.034119 
	C929.512512,434.089996 959.300171,434.145844 989.548340,434.296570 
z"/>
<path fill="#C5026B" opacity="1.000000" stroke="none" 
	d="
M888.993469,434.841431 
	C888.996521,552.779175 888.999573,670.716980 889.005249,789.092041 
	C855.600708,784.886414 822.189758,784.870667 788.390869,788.895508 
	C788.006226,670.359802 788.005676,552.375122 788.005127,434.390411 
	C813.040283,434.308136 838.075378,434.225891 863.922119,434.302490 
	C872.820251,434.588043 880.906860,434.714722 888.993469,434.841431 
z"/>
<path fill="#BE016E" opacity="1.000000" stroke="none" 
	d="
M787.544800,434.296082 
	C788.005676,552.375122 788.006226,670.359802 788.016357,788.756470 
	C776.359436,790.610107 764.569214,791.413452 753.055664,793.644531 
	C736.208557,796.909058 719.559814,801.197205 702.420654,804.608154 
	C702.009827,689.710205 702.029602,575.253113 701.915405,460.796112 
	C701.910522,455.903076 700.667419,451.011292 700.001099,446.118927 
	C714.611084,438.043304 730.155762,434.120026 746.950500,434.536255 
	C760.317505,434.867493 773.705688,434.345123 787.544800,434.296082 
z"/>
<path fill="#C1016D" opacity="1.000000" stroke="none" 
	d="
M742.088013,915.773010 
	C758.786682,918.322632 775.439331,921.252625 792.200928,923.283386 
	C802.740234,924.560181 813.442993,924.488464 824.536194,925.551636 
	C824.990723,1042.443970 824.981506,1158.806274 824.972229,1275.168701 
	C820.509583,1275.294922 816.047058,1275.527710 811.584351,1275.529541 
	C788.027039,1275.539673 764.469788,1275.491455 740.460022,1274.904297 
	C740.005066,1157.671143 739.987732,1040.997070 740.087341,924.322937 
	C740.089783,921.472412 741.392029,918.622986 742.088013,915.773010 
z"/>
<path fill="#BA026F" opacity="1.000000" stroke="none" 
	d="
M741.805054,915.538086 
	C741.392029,918.622986 740.089783,921.472412 740.087341,924.322937 
	C739.987732,1040.997070 740.005066,1157.671143 740.018005,1274.757324 
	C715.235107,1274.947144 690.294922,1278.150269 665.379395,1271.386108 
	C665.001648,1163.075928 665.009399,1055.365112 664.955200,947.654236 
	C664.953674,944.708130 664.286865,941.762390 663.930298,938.816467 
	C678.100769,927.556763 692.223877,916.235901 706.533386,905.155823 
	C707.651489,904.290100 710.214111,904.673950 711.864746,905.213379 
	C721.789490,908.457275 731.644043,911.916199 741.805054,915.538086 
z"/>
<path fill="#C8016A" opacity="1.000000" stroke="none" 
	d="
M825.420776,1275.315186 
	C824.981506,1158.806274 824.990723,1042.443970 824.999695,925.623779 
	C845.612976,924.629211 866.137634,923.259949 886.172180,917.928589 
	C891.272827,916.571350 896.236816,914.700867 901.643799,913.470581 
	C902.349304,916.804810 902.933533,919.732605 902.955627,922.664673 
	C903.056519,936.053772 902.999573,949.444031 902.999329,962.833862 
	C892.335571,964.352112 881.671814,965.870483 869.428223,967.613770 
	C880.264404,979.829163 890.642700,991.528381 900.821899,1003.804749 
	C900.415283,1006.503479 900.027039,1008.625061 900.026062,1010.746704 
	C899.985840,1098.887207 899.980286,1187.027832 899.970459,1275.168335 
	C891.858521,1275.294800 883.746704,1275.512085 875.634521,1275.528931 
	C859.046265,1275.563599 842.457764,1275.490356 825.420776,1275.315186 
z"/>
<path fill="#B80270" opacity="1.000000" stroke="none" 
	d="
M699.660034,446.151978 
	C700.667419,451.011292 701.910522,455.903076 701.915405,460.796112 
	C702.029602,575.253113 702.009827,689.710205 702.025757,804.643860 
	C690.786133,809.442749 679.137024,812.956299 668.370483,818.261108 
	C647.987000,828.304504 628.110107,839.376099 607.338989,849.833618 
	C606.436829,847.863098 606.033936,846.080017 606.028748,844.295837 
	C605.980286,827.643433 606.045898,810.990540 605.954895,794.338501 
	C605.939636,791.553894 605.330322,788.772522 604.995544,785.989746 
	C612.724548,780.854065 620.358643,775.565918 628.233154,770.664001 
	C631.049133,768.911072 632.494324,767.011169 632.751587,763.666504 
	C634.409912,742.108826 636.211670,720.562012 637.994385,699.013977 
	C640.887573,664.044189 643.801392,629.076050 646.708496,594.107361 
	C648.747131,569.585144 650.780396,545.062439 652.831238,520.541260 
	C655.466797,489.028351 670.411438,464.970337 696.867737,447.891174 
	C697.703613,447.351562 698.502747,446.755005 699.660034,446.151978 
z"/>
<path fill="#E40160" opacity="1.000000" stroke="none" 
	d="
M1161.000000,1105.054443 
	C1185.739746,1102.374634 1210.589844,1100.432251 1235.179443,1096.750122 
	C1251.016724,1094.378540 1266.471191,1089.452393 1282.520020,1086.086792 
	C1282.953491,1149.392456 1282.964111,1212.282471 1282.974854,1275.172607 
	C1282.161011,1275.296875 1281.347290,1275.529907 1280.533447,1275.529785 
	C1240.993530,1275.519531 1201.453613,1275.489136 1161.460693,1274.902100 
	C1161.005127,1217.913696 1161.002563,1161.484131 1161.000000,1105.054443 
z"/>
<path fill="#1C1565" opacity="1.000000" stroke="none" 
	d="
M1409.641846,1480.433105 
	C1406.968140,1470.589111 1404.424316,1461.132812 1401.758301,1451.222412 
	C1414.135010,1451.222412 1426.166260,1451.222412 1438.989258,1451.222412 
	C1448.815918,1494.448975 1458.735840,1538.085327 1468.655762,1581.721802 
	C1468.994385,1581.728271 1469.333130,1581.734741 1469.671875,1581.741211 
	C1481.092285,1538.184692 1492.512817,1494.628174 1503.953979,1450.992798 
	C1516.881836,1450.992798 1529.518921,1450.992798 1542.687134,1450.992798 
	C1553.492188,1494.426392 1564.310425,1537.912842 1575.128662,1581.399292 
	C1575.386841,1581.432007 1575.645020,1581.464722 1575.903198,1581.497437 
	C1585.924561,1537.998657 1595.945923,1494.500000 1605.961304,1451.027100 
	C1618.557617,1451.027100 1630.681152,1451.027100 1643.459717,1451.027100 
	C1627.423462,1508.444824 1611.485474,1565.510742 1595.495850,1622.761230 
	C1581.892578,1622.761230 1568.438599,1622.761230 1554.403931,1622.761230 
	C1543.877686,1582.850098 1533.299561,1542.742798 1522.338379,1501.182983 
	C1510.918213,1542.566772 1499.852783,1582.665161 1488.739868,1622.935547 
	C1475.260864,1622.935547 1461.953247,1622.935547 1447.908203,1622.935547 
	C1435.237793,1575.719482 1422.504761,1528.270264 1409.641846,1480.433105 
z"/>
<path fill="#010101" opacity="1.000000" stroke="none" 
	d="
M889.429321,434.761322 
	C880.906860,434.714722 872.820251,434.588043 864.391113,434.247528 
	C864.087402,409.375336 863.996887,384.715912 864.195312,360.058807 
	C864.483521,324.240509 876.830444,293.045044 902.767456,268.345673 
	C939.175720,233.674759 982.656006,222.796417 1030.503906,237.842697 
	C1078.725220,253.006393 1107.828613,287.127808 1118.031372,336.797607 
	C1119.558838,344.233826 1120.052979,351.994659 1120.079590,359.608612 
	C1120.254272,409.595276 1120.199707,459.582855 1120.149658,509.570068 
	C1120.136353,522.818298 1108.279419,531.311707 1096.307617,526.828369 
	C1089.339355,524.218750 1085.022949,517.765137 1085.011597,509.633453 
	C1084.975708,483.806763 1084.998291,457.979980 1084.998291,432.153229 
	C1084.998291,407.826080 1085.008179,383.498962 1084.996338,359.171814 
	C1084.973145,312.059326 1049.387573,272.377197 1001.214783,267.399841 
	C952.703430,262.387543 911.921021,295.369934 902.096741,338.396667 
	C900.482483,345.466492 899.711243,352.863922 899.624329,360.122803 
	C899.333130,384.446259 899.528564,408.775543 899.631287,433.568359 
	C899.724915,434.034119 899.819580,434.048920 899.545898,433.975342 
	C899.027771,434.223511 898.783386,434.545258 898.539001,434.867004 
	C895.647705,434.805084 892.756470,434.743164 889.429321,434.761322 
z"/>
<path fill="#EE005D" opacity="1.000000" stroke="none" 
	d="
M1283.421387,1275.317383 
	C1282.964111,1212.282471 1282.953491,1149.392456 1282.910400,1085.995605 
	C1322.921265,1072.510010 1359.982666,1053.653076 1394.769531,1029.205933 
	C1395.274048,1031.604492 1395.022461,1033.844971 1395.018188,1036.086060 
	C1394.985107,1053.309204 1394.970825,1070.532349 1395.044434,1087.755127 
	C1395.051880,1089.515503 1395.675781,1091.273315 1396.013672,1093.032227 
	C1391.945312,1096.177490 1388.062622,1099.613159 1383.747192,1102.371948 
	C1380.555786,1104.412109 1380.111206,1106.639282 1380.431396,1110.199097 
	C1382.474121,1132.910278 1384.824219,1155.619507 1385.918823,1178.385010 
	C1388.496094,1231.980835 1346.502808,1275.513184 1292.862793,1275.544556 
	C1289.864502,1275.546265 1286.866089,1275.490967 1283.421387,1275.317383 
z"/>
<path fill="#D30166" opacity="1.000000" stroke="none" 
	d="
M1057.973755,1275.167969 
	C1056.330933,1275.294556 1054.687988,1275.531494 1053.045166,1275.531128 
	C1024.000977,1275.525635 994.956909,1275.491211 965.460144,1274.903931 
	C965.005249,1200.977661 965.002930,1127.610474 965.000610,1054.243286 
	C990.679749,1069.452759 1017.560547,1081.962646 1046.237793,1090.448486 
	C1049.093140,1091.293457 1051.904785,1092.285645 1054.913086,1093.924072 
	C1056.059570,1097.723022 1057.867188,1100.805298 1057.875854,1103.892456 
	C1058.036621,1160.983887 1057.982544,1218.076050 1057.973755,1275.167969 
z"/>
<path fill="#DB0163" opacity="1.000000" stroke="none" 
	d="
M1058.422363,1275.313965 
	C1057.982544,1218.076050 1058.036621,1160.983887 1057.875854,1103.892456 
	C1057.867188,1100.805298 1056.059570,1097.723022 1055.065186,1094.261597 
	C1064.302368,1095.672119 1073.566895,1097.442871 1082.824219,1099.250610 
	C1108.349365,1104.235229 1134.130371,1105.683594 1160.538208,1104.966553 
	C1161.002563,1161.484131 1161.005127,1217.913696 1161.018677,1274.755249 
	C1145.755615,1275.293579 1130.481934,1275.490479 1115.207886,1275.528320 
	C1096.428955,1275.574829 1077.649902,1275.488647 1058.422363,1275.313965 
z"/>
<path fill="#B50272" opacity="1.000000" stroke="none" 
	d="
M663.608215,938.930054 
	C664.286865,941.762390 664.953674,944.708130 664.955200,947.654236 
	C665.009399,1055.365112 665.001648,1163.075928 665.005005,1271.234619 
	C623.184509,1260.134033 594.515015,1217.751465 598.597717,1174.483765 
	C601.817627,1140.359985 604.251587,1106.162109 607.061890,1071.999390 
	C609.354065,1044.135010 611.638245,1016.269775 614.107239,988.420959 
	C614.276855,986.507935 615.572144,984.322205 617.002869,982.950806 
	C632.354248,968.235413 647.838318,953.658508 663.608215,938.930054 
z"/>
<path fill="#1C1565" opacity="1.000000" stroke="none" 
	d="
M1176.168457,1525.000000 
	C1176.168457,1557.802002 1176.168457,1590.103882 1176.168457,1622.997314 
	C1165.007812,1622.997314 1154.068115,1623.132202 1143.140137,1622.831543 
	C1141.725952,1622.792603 1140.039429,1620.724121 1139.041626,1619.222046 
	C1115.293091,1583.473633 1091.622925,1547.673096 1067.931274,1511.886841 
	C1066.880249,1510.299316 1065.761230,1508.756470 1063.885742,1506.059326 
	C1063.885742,1545.784912 1063.885742,1584.136353 1063.885742,1622.742676 
	C1052.164062,1622.742676 1040.904785,1622.742676 1029.321289,1622.742676 
	C1029.321289,1565.583008 1029.321289,1508.358032 1029.321289,1450.503662 
	C1040.150146,1450.503662 1051.086182,1450.363525 1062.009277,1450.675415 
	C1063.423340,1450.715820 1065.086060,1452.882568 1066.102783,1454.416382 
	C1089.908569,1490.327393 1113.640015,1526.287598 1137.390137,1562.235596 
	C1138.379272,1563.732788 1139.413452,1565.200195 1141.160645,1567.754639 
	C1141.160645,1528.157104 1141.160645,1489.708984 1141.160645,1450.871582 
	C1152.986938,1450.871582 1164.212280,1450.871582 1176.168457,1450.871582 
	C1176.168457,1475.364258 1176.168457,1499.932129 1176.168457,1525.000000 
z"/>
<path fill="#CD0168" opacity="1.000000" stroke="none" 
	d="
M964.684937,1054.068115 
	C965.002930,1127.610474 965.005249,1200.977661 965.018188,1274.756836 
	C953.264709,1275.295288 941.500916,1275.472778 929.736511,1275.532593 
	C920.114258,1275.581543 910.491333,1275.489990 900.419556,1275.314575 
	C899.980286,1187.027832 899.985840,1098.887207 900.026062,1010.746704 
	C900.027039,1008.625061 900.415283,1006.503479 900.969727,1004.112549 
	C920.466980,1022.878662 941.731201,1039.251221 964.684937,1054.068115 
z"/>
<path fill="#1C1565" opacity="1.000000" stroke="none" 
	d="
M1207.838623,1552.164795 
	C1198.610474,1493.402466 1240.994507,1448.864624 1293.046997,1448.514648 
	C1334.943481,1448.232910 1368.637817,1472.089722 1379.318237,1510.100220 
	C1393.481689,1560.505371 1367.170532,1610.036499 1316.627197,1622.367432 
	C1265.858398,1634.753540 1215.524536,1602.479370 1207.838623,1552.164795 
M1242.372437,1532.915161 
	C1242.945679,1539.685913 1242.865723,1546.589600 1244.212524,1553.202759 
	C1248.553223,1574.518311 1264.959473,1590.189819 1285.096924,1592.990234 
	C1309.997925,1596.452881 1329.644287,1587.314209 1340.299683,1567.236328 
	C1346.685303,1555.203857 1347.908325,1542.230469 1346.941650,1528.922485 
	C1343.986938,1488.245239 1300.980713,1465.920044 1266.472168,1487.317261 
	C1250.039917,1497.506226 1243.649536,1513.451416 1242.372437,1532.915161 
z"/>
<path fill="#EC207A" opacity="1.000000" stroke="none" 
	d="
M834.240845,1578.236816 
	C817.055237,1610.745361 782.099182,1628.822021 745.709351,1624.267700 
	C708.229370,1619.577026 679.758972,1596.087524 670.677185,1561.248169 
	C657.287231,1509.881714 685.552307,1461.578491 735.424988,1450.639893 
	C787.009277,1439.326172 833.745239,1470.203491 842.478333,1519.601807 
	C846.046936,1539.787231 843.793823,1559.396729 834.240845,1578.236816 
M800.319580,1504.298706 
	C789.142822,1485.402222 771.917664,1478.529175 750.870667,1480.015503 
	C731.322021,1481.396118 716.902161,1490.916016 708.749878,1508.940186 
	C702.282593,1523.239136 701.829224,1538.226807 705.056152,1553.404175 
	C709.524231,1574.418823 726.116394,1590.330688 746.239502,1593.014282 
	C771.386658,1596.367798 791.599792,1587.159912 801.460571,1566.493042 
	C811.186890,1546.107910 810.711731,1525.329468 800.319580,1504.298706 
z"/>
<path fill="#EC1F79" opacity="1.000000" stroke="none" 
	d="
M505.026825,1623.000488 
	C501.240936,1623.000488 497.950531,1623.000488 494.425537,1623.000488 
	C494.425537,1565.460693 494.425537,1508.415894 494.425537,1451.106934 
	C505.939453,1451.106934 517.184448,1451.106934 528.972839,1451.106934 
	C528.972839,1474.463135 528.972839,1497.693604 528.972839,1521.157349 
	C553.582520,1521.157349 577.650146,1521.157349 602.361816,1521.157349 
	C602.361816,1497.694214 602.361816,1474.475464 602.361816,1451.054443 
	C614.125793,1451.054443 625.247803,1451.054443 636.764221,1451.054443 
	C636.764221,1508.142578 636.764221,1565.195435 636.764221,1622.624756 
	C625.736328,1622.624756 614.494324,1622.624756 602.672791,1622.624756 
	C602.672791,1598.726562 602.672791,1574.679932 602.672791,1550.319092 
	C578.000732,1550.319092 553.900452,1550.319092 529.284363,1550.319092 
	C529.284363,1574.187378 529.284363,1598.240479 529.284363,1623.000488 
	C521.033508,1623.000488 513.277893,1623.000488 505.026825,1623.000488 
z"/>
<path fill="#EC207A" opacity="1.000000" stroke="none" 
	d="
M339.192535,1593.661499 
	C337.343109,1586.967651 335.648560,1580.621338 333.761749,1573.554932 
	C347.213226,1573.554932 359.267090,1573.554932 371.523468,1573.554932 
	C371.640625,1573.786255 371.946442,1574.181274 372.049622,1574.623657 
	C376.571838,1594.013184 395.172455,1602.361694 413.001801,1592.991455 
	C426.078827,1586.118896 428.119354,1568.787354 415.937653,1560.523926 
	C408.829437,1555.702026 400.077118,1553.187988 391.887421,1550.106201 
	C382.252441,1546.480469 372.205536,1543.888428 362.731476,1539.909424 
	C346.599121,1533.133911 336.666229,1521.224121 335.452423,1503.179443 
	C334.250031,1485.304443 339.920166,1470.368896 354.893860,1459.765991 
	C377.213928,1443.961304 417.092834,1444.554199 438.886871,1460.940552 
	C450.961761,1470.019287 456.635803,1482.421631 457.791168,1497.570923 
	C444.980713,1497.570923 432.563599,1497.570923 420.195312,1497.570923 
	C414.293945,1480.798096 402.938843,1474.208252 386.422546,1478.083740 
	C379.059479,1479.811401 373.801544,1484.133301 372.178864,1491.815430 
	C370.489349,1499.813721 372.023132,1507.192139 379.553802,1511.363647 
	C386.474182,1515.197021 393.953796,1518.113770 401.385376,1520.906494 
	C410.091888,1524.178345 419.118713,1526.599121 427.819000,1529.885620 
	C446.640320,1536.995239 459.190033,1549.471191 459.760742,1570.705688 
	C460.358917,1592.960815 450.334900,1609.765381 429.987244,1618.365601 
	C403.455231,1629.579712 377.127777,1627.791992 353.249146,1610.684448 
	C347.555420,1606.605347 343.926208,1599.644409 339.192535,1593.661499 
z"/>
<path fill="#D60165" opacity="1.000000" stroke="none" 
	d="
M1082.586670,929.094543 
	C1083.000488,942.937378 1082.972290,956.708313 1083.031616,970.478943 
	C1083.039917,972.429321 1083.473877,974.377869 1083.878174,976.718994 
	C1080.098877,979.624695 1075.774536,981.708984 1072.300415,984.760986 
	C1067.928833,988.601562 1068.295654,992.550720 1073.678833,994.927734 
	C1080.579590,997.974915 1087.944458,1000.194824 1095.308838,1001.919189 
	C1109.030762,1005.132202 1122.896606,1007.729797 1137.639771,1010.777161 
	C1136.155151,1012.042175 1135.577515,1012.723694 1134.846680,1013.129639 
	C1107.957520,1028.065063 1079.550903,1036.254272 1048.430054,1033.058228 
	C1027.099365,1030.867798 1007.458252,1023.649353 988.727295,1013.466187 
	C989.258545,1010.927612 989.948242,1008.875610 989.953125,1006.822083 
	C990.057922,962.723206 990.085999,918.624084 990.129028,874.525024 
	C1006.583313,884.755310 1023.158508,894.798157 1039.439209,905.297485 
	C1047.235962,910.325562 1054.090454,916.884644 1062.091797,921.502747 
	C1068.197998,925.027039 1075.437256,926.588135 1082.586670,929.094543 
z"/>
<path fill="#EC207A" opacity="1.000000" stroke="none" 
	d="
M919.031677,1557.002563 
	C915.564941,1557.002563 912.592224,1557.002563 909.103027,1557.002563 
	C909.103027,1579.039062 909.103027,1600.762573 909.103027,1622.741089 
	C897.332764,1622.741089 886.079285,1622.741089 874.488037,1622.741089 
	C874.488037,1565.625977 874.488037,1508.576538 874.488037,1451.172485 
	C875.804688,1451.059326 877.076477,1450.853027 878.348022,1450.854858 
	C899.841125,1450.887207 921.341064,1450.628906 942.825134,1451.095947 
	C960.577332,1451.481934 976.692993,1456.712769 988.630493,1470.775513 
	C1008.370422,1494.029907 1005.283020,1544.752563 958.278992,1554.682617 
	C945.756714,1557.328003 932.464478,1556.328613 919.031677,1557.002563 
M928.493225,1528.997437 
	C934.463806,1528.638550 940.532471,1528.834351 946.383728,1527.800171 
	C957.162903,1525.895264 963.585938,1517.555176 964.006348,1506.071655 
	C964.508484,1492.355835 959.668213,1483.074707 948.314575,1481.166016 
	C935.529236,1479.016479 922.344788,1479.240234 909.297607,1478.429443 
	C909.297607,1496.137939 909.297607,1512.393066 909.297607,1528.997437 
	C915.556641,1528.997437 921.526245,1528.997437 928.493225,1528.997437 
z"/>
<path fill="#CE0168" opacity="1.000000" stroke="none" 
	d="
M989.878601,874.305542 
	C990.085999,918.624084 990.057922,962.723206 989.953125,1006.822083 
	C989.948242,1008.875610 989.258545,1010.927612 988.454956,1013.204224 
	C969.215759,1000.978149 950.376953,988.576660 931.619812,976.052917 
	C924.623413,971.381592 918.511597,965.187988 909.739014,963.700012 
	C907.789795,963.369324 905.810791,963.213623 903.422424,962.905640 
	C902.999573,949.444031 903.056519,936.053772 902.955627,922.664673 
	C902.933533,919.732605 902.349304,916.804810 902.016113,913.454041 
	C905.366455,910.925415 908.985229,909.134338 912.020874,906.634949 
	C916.453308,902.985657 916.331665,898.676758 911.104370,896.393982 
	C903.887207,893.242310 896.209045,890.926270 888.525513,889.110840 
	C874.876282,885.885925 861.074646,883.306030 845.971924,880.173157 
	C886.112061,856.906982 926.567810,850.543152 969.401428,865.697205 
	C976.272949,868.128174 982.892273,871.271851 989.878601,874.305542 
z"/>
<path fill="#AE0475" opacity="1.000000" stroke="none" 
	d="
M604.659851,786.064270 
	C605.330322,788.772522 605.939636,791.553894 605.954895,794.338501 
	C606.045898,810.990540 605.980286,827.643433 606.028748,844.295837 
	C606.033936,846.080017 606.436829,847.863098 607.009521,849.912842 
	C596.298401,858.121033 585.357361,866.243103 574.147034,873.974854 
	C516.284180,913.882385 471.170532,964.889954 439.728973,1027.859375 
	C439.061493,1029.196167 438.342590,1030.507324 437.317841,1031.906860 
	C436.987976,1031.983276 437.036713,1032.021362 437.036682,1032.021362 
	C439.474884,1022.234436 441.316162,1012.252136 444.444183,1002.690918 
	C473.823273,912.889893 527.331177,840.825500 604.659851,786.064270 
z"/>
<path fill="#F8025A" opacity="1.000000" stroke="none" 
	d="
M1396.341064,1092.938965 
	C1395.675781,1091.273315 1395.051880,1089.515503 1395.044434,1087.755127 
	C1394.970825,1070.532349 1394.985107,1053.309204 1395.018188,1036.086060 
	C1395.022461,1033.844971 1395.274048,1031.604492 1395.098389,1029.128174 
	C1404.685425,1021.614990 1414.644409,1014.416382 1424.475098,1007.046570 
	C1476.974976,967.688904 1517.810303,918.652527 1546.606934,859.646912 
	C1546.814575,859.221619 1547.122925,858.845520 1547.463013,858.326294 
	C1548.253174,876.820374 1517.316895,950.767456 1492.670410,988.609741 
	C1466.543457,1028.724976 1434.553711,1063.520020 1396.341064,1092.938965 
z"/>
<path fill="#26206C" opacity="1.000000" stroke="none" 
	d="
M1461.931152,1699.856934 
	C1460.608765,1700.297852 1459.501709,1700.402100 1457.664062,1700.575195 
	C1458.570312,1694.954712 1459.366211,1689.781860 1460.247437,1684.623413 
	C1461.058105,1679.878906 1461.840332,1675.123047 1462.892334,1670.429810 
	C1463.232910,1668.910767 1464.387939,1667.574097 1465.170410,1666.154053 
	C1466.631714,1667.386353 1468.670776,1668.330078 1469.454834,1669.900391 
	C1472.921997,1676.844727 1476.028076,1683.969238 1480.318359,1691.029053 
	C1481.556641,1684.006226 1482.903809,1676.999878 1483.981934,1669.952637 
	C1484.440918,1666.953735 1485.325439,1665.246948 1489.082275,1666.699829 
	C1487.249512,1677.298096 1485.459229,1687.895020 1483.506104,1698.461670 
	C1483.357056,1699.268066 1481.908691,1700.540161 1481.321167,1700.412476 
	C1480.089355,1700.144775 1478.504517,1699.351440 1477.984619,1698.313110 
	C1475.017212,1692.388062 1472.331787,1686.322144 1469.522949,1680.316895 
	C1468.865234,1678.911133 1468.101685,1677.554932 1466.658691,1674.770996 
	C1464.968018,1684.044312 1463.557251,1691.782227 1461.931152,1699.856934 
z"/>
<path fill="#26206C" opacity="1.000000" stroke="none" 
	d="
M600.233032,1693.439575 
	C599.108582,1696.382324 601.232300,1701.256592 594.673767,1700.276245 
	C595.772156,1693.829468 596.842224,1687.517334 597.924744,1681.207397 
	C598.600037,1677.270386 599.171814,1673.308960 600.053284,1669.418091 
	C600.322876,1668.227905 601.583679,1666.274658 602.184021,1666.348511 
	C603.511841,1666.512085 605.306702,1667.447876 605.861816,1668.582153 
	C609.499695,1676.015137 612.858032,1683.584961 616.972412,1692.560059 
	C618.122131,1686.439697 618.597900,1681.692261 619.979797,1677.224976 
	C621.166016,1673.390259 618.553467,1667.367310 626.227600,1665.618530 
	C624.584778,1675.261108 623.088867,1684.045898 621.588989,1692.829834 
	C621.532959,1693.157837 621.481262,1693.496704 621.355469,1693.800781 
	C620.423584,1696.052490 619.909058,1699.837646 618.446533,1700.250977 
	C614.252686,1701.436401 614.363831,1696.819580 613.148987,1694.471069 
	C610.049927,1688.479980 607.396484,1682.258423 603.416199,1676.211426 
	C602.381531,1681.814697 601.346863,1687.417969 600.233032,1693.439575 
z"/>
<path fill="#26206C" opacity="1.000000" stroke="none" 
	d="
M467.961792,1683.763184 
	C468.996979,1677.777954 469.990936,1672.224365 470.976715,1666.716553 
	C474.077606,1665.233032 475.643280,1666.517090 476.842957,1669.233765 
	C480.120087,1676.655518 483.543365,1684.012939 487.503845,1692.701294 
	C489.084564,1683.955200 490.306061,1676.462036 491.902222,1669.049683 
	C492.185944,1667.732056 494.026184,1666.749512 495.147675,1665.612183 
	C495.618286,1665.985107 496.088898,1666.358032 496.559509,1666.730957 
	C494.644928,1677.810059 492.730347,1688.889160 490.822693,1699.928223 
	C487.817657,1701.406982 486.186401,1700.355225 484.943604,1697.547363 
	C481.666534,1690.142822 478.199036,1682.822510 474.243530,1674.246216 
	C472.718689,1682.655151 471.430115,1689.846680 470.104828,1697.031372 
	C469.498993,1700.315796 469.466187,1700.309692 465.141266,1700.196777 
	C466.075928,1694.815552 466.998260,1689.505249 467.961792,1683.763184 
z"/>
<path fill="#26206C" opacity="1.000000" stroke="none" 
	d="
M1020.072510,1673.809570 
	C1022.919861,1679.976685 1025.633301,1685.790771 1028.806885,1692.590698 
	C1030.311401,1684.162720 1031.788086,1676.868652 1032.845459,1669.514282 
	C1033.304810,1666.319092 1034.573975,1665.545166 1037.848633,1666.649536 
	C1035.893311,1677.863403 1033.941162,1689.058960 1031.680664,1702.023071 
	C1029.249390,1700.056152 1027.147095,1699.151367 1026.365234,1697.586792 
	C1022.743347,1690.339233 1019.487915,1682.908447 1015.500549,1674.236938 
	C1013.933533,1682.814453 1012.722107,1690.140259 1011.160767,1697.390869 
	C1010.857910,1698.797241 1009.190918,1699.909912 1008.153137,1701.158081 
	C1007.572876,1700.814941 1006.992554,1700.471680 1006.412292,1700.128418 
	C1008.336975,1688.949463 1010.261719,1677.770508 1012.201660,1666.503418 
	C1018.689270,1664.874390 1017.712463,1670.912354 1020.072510,1673.809570 
z"/>
<path fill="#26206C" opacity="1.000000" stroke="none" 
	d="
M1347.572021,1666.139404 
	C1352.539429,1666.678345 1356.799438,1667.921631 1357.831665,1673.052368 
	C1359.057129,1679.143555 1355.950928,1683.223877 1350.277832,1685.994263 
	C1351.953735,1690.700806 1353.593140,1695.304443 1355.239746,1699.928711 
	C1351.879150,1701.348022 1350.170044,1700.397827 1349.480957,1697.245605 
	C1349.199951,1695.960815 1348.352783,1694.784424 1348.157715,1693.498901 
	C1347.296021,1687.822510 1344.408447,1685.326416 1338.364014,1687.299072 
	C1335.290527,1690.905884 1339.019165,1698.442139 1332.934814,1700.835571 
	C1332.339966,1700.592041 1331.744995,1700.348511 1331.150024,1700.104980 
	C1333.095337,1688.907471 1335.040527,1677.709961 1337.051270,1666.135132 
	C1340.543579,1666.135132 1343.836792,1666.135132 1347.572021,1666.139404 
M1353.272217,1673.772461 
	C1350.590698,1667.881470 1345.412354,1670.816040 1340.980347,1669.898560 
	C1340.547729,1672.387817 1340.177734,1674.469604 1339.826294,1676.554565 
	C1339.485474,1678.576172 1339.163818,1680.601196 1338.829224,1682.653320 
	C1350.012329,1683.563232 1352.713379,1682.013062 1353.272217,1673.772461 
z"/>
<path fill="#26206C" opacity="1.000000" stroke="none" 
	d="
M1086.042725,1687.540649 
	C1084.502075,1698.232788 1081.404297,1701.220215 1072.438110,1701.022705 
	C1066.701172,1700.896484 1062.293701,1697.799561 1061.280518,1692.229614 
	C1059.900269,1684.641113 1060.897827,1677.258301 1065.768066,1670.940918 
	C1069.526367,1666.066040 1074.821289,1664.837402 1080.544434,1666.232300 
	C1085.280518,1667.386841 1087.322632,1671.081055 1088.225586,1677.382568 
	C1085.807007,1675.842285 1083.896240,1675.295776 1083.193970,1674.061646 
	C1080.240112,1668.870850 1074.446655,1667.950928 1070.040649,1672.255493 
	C1065.937744,1676.263916 1063.727173,1687.696411 1066.076782,1692.911255 
	C1068.034058,1697.255493 1071.721558,1697.582031 1075.747803,1696.931152 
	C1081.167603,1696.055176 1081.078857,1691.956543 1081.084473,1687.457886 
	C1078.786133,1687.309937 1076.567017,1687.167114 1072.833130,1686.926636 
	C1074.653809,1685.233032 1075.511597,1683.759644 1076.598022,1683.565308 
	C1078.853638,1683.161987 1081.242920,1683.587158 1083.554932,1683.397827 
	C1086.815552,1683.130981 1086.622559,1684.960327 1086.042725,1687.540649 
z"/>
<path fill="#26206C" opacity="1.000000" stroke="none" 
	d="
M802.343994,1666.234619 
	C802.018921,1671.858765 801.435730,1677.417847 800.617371,1682.942139 
	C799.911316,1687.709106 798.956177,1692.439697 798.075684,1697.179810 
	C797.476074,1700.408081 797.448792,1700.402954 793.218628,1700.051025 
	C793.995300,1695.173584 794.769287,1690.312988 795.592163,1685.145020 
	C790.114868,1685.145020 784.872620,1685.145020 779.399292,1685.145020 
	C778.193787,1690.133301 777.028320,1695.218506 775.612854,1700.233276 
	C775.516479,1700.574829 773.542969,1700.386719 771.876770,1700.474854 
	C773.797119,1689.439819 775.555664,1678.832153 777.610596,1668.282349 
	C777.821838,1667.198120 779.804077,1666.458740 780.964417,1665.559326 
	C781.348145,1665.880249 781.731873,1666.201294 782.115540,1666.522217 
	C781.389771,1671.213745 780.663940,1675.905396 779.906677,1680.800293 
	C785.429016,1680.800293 790.718140,1680.800293 796.348816,1680.800293 
	C797.079895,1676.850708 797.579773,1672.904419 798.645508,1669.117432 
	C798.984802,1667.911987 800.828613,1667.130249 802.343994,1666.234619 
z"/>
<path fill="#26206C" opacity="1.000000" stroke="none" 
	d="
M442.455383,1679.947021 
	C440.802429,1685.336914 439.913422,1690.692261 437.459503,1695.194458 
	C434.616302,1700.411133 427.838867,1702.228516 422.663696,1700.486084 
	C417.930725,1698.892456 414.902618,1694.526245 415.078491,1688.299805 
	C415.189026,1684.385986 415.776276,1680.321533 417.054718,1676.638916 
	C419.757324,1668.854370 425.876801,1665.006714 432.953583,1665.891235 
	C438.880371,1666.631836 441.492096,1670.353882 442.455383,1679.947021 
M419.469299,1686.673828 
	C419.437683,1691.139038 419.609650,1695.640015 425.041595,1696.984863 
	C429.828247,1698.170166 434.338898,1695.125122 436.162140,1689.238037 
	C437.227417,1685.798462 437.633789,1682.100586 437.910522,1678.486206 
	C438.190796,1674.825806 437.312195,1671.276245 433.301300,1670.019653 
	C428.977051,1668.665039 425.027222,1670.138794 423.078522,1674.092163 
	C421.293396,1677.713623 420.680786,1681.913086 419.469299,1686.673828 
z"/>
<path fill="#26206C" opacity="1.000000" stroke="none" 
	d="
M829.216492,1674.350342 
	C830.736450,1672.347412 831.866638,1670.430054 833.458679,1669.042358 
	C841.338196,1662.173462 851.686218,1665.731445 853.373413,1675.987549 
	C854.489136,1682.769531 853.053711,1689.224365 849.110901,1694.937500 
	C845.689819,1699.894531 839.500793,1702.178589 834.280334,1700.644409 
	C829.434631,1699.220337 826.000000,1694.620117 826.284424,1688.203979 
	C826.485596,1683.664307 828.071716,1679.186035 829.216492,1674.350342 
M839.177673,1670.040527 
	C831.546265,1673.674561 831.022095,1680.768311 830.759033,1687.820801 
	C830.612549,1691.748291 831.282349,1695.799561 835.953613,1696.915283 
	C840.588257,1698.022095 844.581055,1696.007324 846.192444,1691.785156 
	C847.865417,1687.401978 848.748169,1682.539917 848.999878,1677.835205 
	C849.333374,1671.598389 846.458313,1669.425537 839.177673,1670.040527 
z"/>
<path fill="#26206C" opacity="1.000000" stroke="none" 
	d="
M1423.207764,1666.134155 
	C1428.320801,1666.134155 1432.963623,1666.134155 1437.896973,1666.134155 
	C1437.896973,1667.495361 1437.896973,1668.690674 1437.896973,1670.148438 
	C1432.271118,1670.148438 1426.984253,1670.148438 1421.404297,1670.148438 
	C1420.802979,1673.737061 1420.235840,1677.120850 1419.587036,1680.992188 
	C1424.535400,1680.992188 1429.123047,1680.992188 1435.029541,1680.992188 
	C1430.241577,1687.740723 1423.893188,1683.094482 1418.766968,1685.660522 
	C1418.214478,1688.800415 1417.569702,1692.464966 1416.844238,1696.588745 
	C1422.398682,1696.588745 1427.478882,1696.588745 1432.559082,1696.588745 
	C1432.871094,1697.031250 1433.183105,1697.473755 1433.495117,1697.916260 
	C1432.426392,1698.799316 1431.387939,1700.399048 1430.283813,1700.445923 
	C1424.330811,1700.698242 1418.361694,1700.565186 1411.713013,1700.565186 
	C1412.935547,1693.138672 1414.061401,1686.170166 1415.238892,1679.210571 
	C1415.709229,1676.429932 1416.699951,1673.672974 1416.731445,1670.896973 
	C1416.781250,1666.494141 1419.017334,1665.550903 1423.207764,1666.134155 
z"/>
<path fill="#26206C" opacity="1.000000" stroke="none" 
	d="
M1294.620117,1680.961914 
	C1298.886108,1680.973511 1302.705811,1680.973511 1306.513550,1680.973511 
	C1306.706055,1684.859131 1306.706055,1684.860229 1301.253662,1684.865356 
	C1298.442017,1684.868042 1295.630371,1684.865845 1292.398804,1684.865845 
	C1291.733032,1688.774292 1291.109131,1692.436768 1290.376831,1696.735474 
	C1296.165405,1696.735474 1301.385498,1696.735474 1306.704834,1696.735474 
	C1305.726440,1700.993896 1299.563599,1701.849854 1285.219482,1700.101562 
	C1287.160889,1688.864014 1289.098267,1677.650635 1291.051758,1666.343140 
	C1298.076782,1666.343140 1304.854370,1666.343140 1311.831299,1666.343140 
	C1311.821899,1672.194702 1307.502197,1669.613403 1305.064087,1669.927002 
	C1301.958496,1670.326538 1298.762695,1670.023926 1294.173950,1670.023926 
	C1294.173950,1673.738770 1294.173950,1677.344604 1294.620117,1680.961914 
z"/>
<path fill="#26206C" opacity="1.000000" stroke="none" 
	d="
M737.555542,1669.964111 
	C735.657471,1672.014893 733.088074,1673.951050 733.040771,1675.947021 
	C733.003784,1677.509521 735.834778,1679.690796 737.843872,1680.638672 
	C742.319092,1682.750000 747.606079,1683.752686 748.177429,1689.986450 
	C748.722961,1695.938354 744.603394,1700.204224 737.808044,1700.961426 
	C730.328369,1701.795044 725.569519,1698.352051 724.326111,1690.976440 
	C726.717651,1690.142578 728.164490,1689.843750 729.356628,1693.196167 
	C729.998901,1695.002441 733.352539,1696.898193 735.452576,1696.864380 
	C738.043274,1696.822632 741.335144,1695.447266 743.003418,1693.510498 
	C745.507996,1690.603027 743.508545,1687.915039 740.397278,1686.412720 
	C737.867920,1685.191406 735.046692,1684.496582 732.671570,1683.048950 
	C726.631714,1679.367432 726.399048,1672.401855 732.145447,1668.282837 
	C736.376221,1665.250366 741.141846,1664.807861 745.843628,1666.985107 
	C749.435913,1668.648560 751.292908,1671.661133 750.760803,1677.106323 
	C748.965393,1675.926514 746.990967,1675.360229 746.645142,1674.274902 
	C745.173462,1669.655762 741.951172,1669.177979 737.555542,1669.964111 
z"/>
<path fill="#26206C" opacity="1.000000" stroke="none" 
	d="
M1572.035645,1680.975586 
	C1575.667847,1680.975952 1578.812988,1680.975952 1581.958252,1680.975952 
	C1582.232300,1681.439331 1582.506348,1681.902710 1582.780396,1682.365967 
	C1581.522461,1683.199219 1580.328369,1684.166382 1578.979736,1684.809326 
	C1578.302246,1685.132202 1577.343872,1684.865601 1576.512451,1684.865967 
	C1566.174438,1684.871216 1565.943604,1685.124756 1566.221313,1696.791748 
	C1568.767944,1696.791748 1571.362549,1696.791748 1573.957031,1696.791748 
	C1576.448242,1696.791748 1578.939453,1696.791748 1581.430786,1696.791748 
	C1581.730103,1697.170898 1582.029541,1697.550171 1582.328979,1697.929321 
	C1581.222290,1698.807617 1580.146240,1700.395874 1579.004028,1700.445068 
	C1573.060303,1700.700562 1567.099731,1700.564209 1560.407715,1700.564209 
	C1562.412109,1688.895874 1564.332520,1677.716187 1566.283325,1666.359497 
	C1573.151611,1666.359497 1579.757690,1666.359497 1586.363770,1666.359497 
	C1586.660034,1666.701660 1586.956299,1667.043945 1587.252686,1667.386108 
	C1586.254395,1668.264771 1585.299927,1669.835327 1584.250244,1669.901855 
	C1579.784424,1670.184570 1575.290649,1670.021973 1570.209595,1670.021973 
	C1569.604492,1673.532104 1569.000977,1677.032593 1568.362671,1680.734863 
	C1569.622559,1680.829956 1570.585693,1680.902710 1572.035645,1680.975586 
z"/>
<path fill="#26206C" opacity="1.000000" stroke="none" 
	d="
M1157.695557,1696.791748 
	C1159.633545,1696.791748 1161.112549,1696.791748 1162.591675,1696.791748 
	C1162.871826,1697.197510 1163.152100,1697.603149 1163.432251,1698.008911 
	C1162.388428,1698.858887 1161.371460,1700.402222 1160.296021,1700.443970 
	C1154.194458,1700.680908 1148.078857,1700.558838 1141.395996,1700.558838 
	C1143.402222,1688.900146 1145.308594,1677.821411 1147.265259,1666.450928 
	C1154.094727,1666.450928 1160.829834,1666.450928 1167.564941,1666.450928 
	C1167.843384,1666.812378 1168.121826,1667.173950 1168.400269,1667.535400 
	C1167.274780,1668.364624 1166.189941,1669.834717 1165.016602,1669.909180 
	C1160.560425,1670.191772 1156.075562,1670.022949 1151.226440,1670.022949 
	C1150.605713,1673.557007 1150.014648,1676.922485 1149.326538,1680.840698 
	C1154.144897,1680.840698 1158.676270,1680.840698 1163.207642,1680.840698 
	C1163.438232,1681.331055 1163.668823,1681.821289 1163.899414,1682.311646 
	C1162.677002,1683.162842 1161.505127,1684.106201 1160.206665,1684.819092 
	C1159.695312,1685.099854 1158.901245,1684.864380 1158.235962,1684.866089 
	C1147.338257,1684.893921 1147.338257,1684.894043 1147.050537,1696.791748 
	C1150.442871,1696.791748 1153.839844,1696.791748 1157.695557,1696.791748 
z"/>
<path fill="#26206C" opacity="1.000000" stroke="none" 
	d="
M673.931580,1667.088867 
	C672.950745,1668.366821 671.918396,1669.836304 670.794861,1669.909668 
	C666.492615,1670.190796 662.161072,1670.023438 657.209595,1670.023438 
	C656.609375,1673.503662 656.006104,1677.001587 655.336609,1680.883301 
	C660.093872,1680.883301 664.524780,1680.883301 668.955688,1680.883301 
	C669.226440,1681.379028 669.497131,1681.874756 669.767883,1682.370483 
	C668.514832,1683.202148 667.325806,1684.168335 665.981750,1684.809204 
	C665.304077,1685.132324 664.345276,1684.865479 663.513550,1684.865967 
	C653.179199,1684.871094 652.932617,1685.142212 653.220398,1696.561035 
	C658.277161,1696.561035 663.360840,1696.561035 668.444519,1696.561035 
	C668.741943,1697.020264 669.039307,1697.479492 669.336731,1697.938721 
	C668.222595,1698.814087 667.138916,1700.396606 665.989319,1700.446045 
	C660.044617,1700.701416 654.083069,1700.564575 647.403992,1700.564575 
	C649.414978,1688.881836 651.339905,1677.699219 653.243774,1666.639160 
	C660.333496,1666.639160 667.085876,1666.639160 673.931580,1667.088867 
z"/>
<path fill="#26206C" opacity="1.000000" stroke="none" 
	d="
M1195.917236,1666.840576 
	C1197.865479,1670.908813 1199.619019,1674.648560 1201.379395,1678.402832 
	C1207.339233,1675.469971 1207.611572,1665.771118 1217.291504,1666.068970 
	C1213.610352,1670.834595 1210.697388,1675.235962 1207.134155,1679.026123 
	C1204.098755,1682.254761 1204.074341,1685.036743 1206.141724,1688.650879 
	C1208.177002,1692.208862 1209.715698,1696.050781 1211.523804,1699.877563 
	C1207.124634,1701.905884 1206.046753,1699.066650 1204.841064,1696.222046 
	C1203.681152,1693.486084 1202.340332,1690.826904 1201.050171,1688.072632 
	C1195.011230,1691.076538 1194.689209,1700.866333 1184.955566,1700.597290 
	C1188.523560,1695.964111 1191.222900,1691.774658 1194.610962,1688.246704 
	C1198.185425,1684.524902 1198.504395,1681.157593 1195.853760,1676.847290 
	C1193.889282,1673.652710 1192.584839,1670.052246 1190.698486,1666.016479 
	C1192.833862,1666.227295 1194.278198,1666.369751 1195.917236,1666.840576 
z"/>
<path fill="#26206C" opacity="1.000000" stroke="none" 
	d="
M925.400513,1698.747559 
	C927.334717,1687.758545 929.183594,1677.150757 931.103088,1666.137573 
	C935.019348,1666.137573 938.800720,1666.032715 942.574158,1666.160889 
	C949.136169,1666.383667 952.898682,1669.571411 953.198059,1674.963135 
	C953.549988,1681.303345 949.569580,1686.278687 943.145691,1686.979492 
	C939.704407,1687.355103 936.188477,1687.046143 932.179504,1687.046143 
	C931.447632,1690.721680 930.786560,1694.244751 930.036865,1697.748657 
	C929.311401,1701.139282 928.694092,1701.298828 925.400513,1698.747559 
M934.574219,1672.095703 
	C933.970764,1675.738770 933.367371,1679.381836 932.666138,1683.615112 
	C936.834167,1683.372314 940.362488,1683.873901 943.279907,1682.766357 
	C945.492493,1681.926270 947.651184,1679.287598 948.454102,1676.970947 
	C948.994080,1675.413452 947.401306,1671.483521 946.284546,1671.283325 
	C942.570984,1670.618042 938.641235,1671.158936 934.574219,1672.095703 
z"/>
<path fill="#26206C" opacity="1.000000" stroke="none" 
	d="
M1248.695923,1687.208374 
	C1246.741943,1687.208252 1245.244507,1687.208252 1243.444092,1687.208252 
	C1242.271118,1691.596069 1241.169556,1695.980713 1239.805298,1700.282104 
	C1239.703735,1700.602051 1237.717041,1700.324097 1236.160645,1700.324097 
	C1238.149170,1688.864380 1240.073364,1677.775024 1242.081909,1666.199585 
	C1246.443115,1666.199585 1250.726318,1665.927490 1254.959229,1666.272461 
	C1259.611206,1666.651611 1263.271973,1668.747559 1264.082031,1673.918579 
	C1264.890137,1679.077515 1262.574097,1684.059937 1257.919678,1685.822876 
	C1255.210938,1686.848877 1252.088745,1686.783081 1248.695923,1687.208374 
M1245.158325,1673.819458 
	C1244.734497,1676.858765 1244.310791,1679.898071 1243.795410,1683.594727 
	C1247.824707,1683.351562 1251.339111,1683.585815 1254.621216,1682.821655 
	C1258.231323,1681.981201 1260.384521,1678.877441 1259.572510,1675.335938 
	C1259.110229,1673.319458 1256.406860,1670.345459 1254.773560,1670.384033 
	C1251.661255,1670.457642 1246.976196,1667.089722 1245.158325,1673.819458 
z"/>
<path fill="#26206C" opacity="1.000000" stroke="none" 
	d="
M894.484375,1666.167236 
	C902.197693,1667.903687 904.649780,1670.743164 904.137207,1676.866821 
	C903.652710,1682.653809 899.482605,1686.655762 893.179443,1687.091431 
	C890.031067,1687.308960 886.855286,1687.129395 883.482483,1687.129395 
	C882.256958,1691.620483 881.132507,1696.002808 879.745239,1700.300171 
	C879.640747,1700.623779 877.662842,1700.342651 876.154297,1700.342651 
	C878.156128,1688.818726 880.084900,1677.715332 882.095581,1666.140625 
	C886.157532,1666.140625 890.102905,1666.140625 894.484375,1666.167236 
M897.897461,1671.355469 
	C894.077881,1670.731323 890.258362,1670.107178 886.021973,1669.414917 
	C885.180542,1674.490479 884.475281,1678.744873 883.710571,1683.357910 
	C887.154053,1683.357910 889.802002,1683.581543 892.399231,1683.313599 
	C898.686707,1682.664673 901.195007,1677.827393 897.897461,1671.355469 
z"/>
<path fill="#26206C" opacity="1.000000" stroke="none" 
	d="
M1519.630981,1668.507568 
	C1529.761230,1662.772095 1537.648438,1666.203979 1539.059082,1678.248047 
	C1536.859131,1676.716431 1534.848145,1676.077148 1534.317261,1674.815186 
	C1532.014771,1669.342285 1526.635376,1667.796753 1522.034546,1671.613892 
	C1517.411987,1675.449463 1514.367188,1688.120972 1517.286621,1693.355347 
	C1518.241455,1695.067383 1521.006592,1697.132446 1522.556763,1696.857056 
	C1525.489380,1696.336182 1528.229858,1694.380493 1530.877930,1692.742676 
	C1532.471680,1691.756714 1533.740479,1690.244873 1535.541748,1689.413818 
	C1534.845825,1697.172119 1529.337280,1701.520020 1522.070068,1701.018311 
	C1516.060547,1700.603394 1512.046143,1696.107910 1511.931519,1689.026367 
	C1511.807739,1681.390015 1513.018311,1674.088135 1519.630981,1668.507568 
z"/>
<path fill="#26206C" opacity="1.000000" stroke="none" 
	d="
M537.676636,1700.185791 
	C531.082275,1700.459839 524.782593,1700.459839 517.893677,1700.459839 
	C519.782898,1689.538452 521.528870,1678.948730 523.561462,1668.414185 
	C523.779724,1667.282959 525.665588,1666.473633 526.777893,1665.514893 
	C527.253174,1665.825195 527.728455,1666.135498 528.203735,1666.445801 
	C526.543457,1676.321533 524.883240,1686.197144 523.102234,1696.791260 
	C527.617737,1696.791260 531.718201,1696.874146 535.813293,1696.761230 
	C538.378479,1696.690552 539.285034,1697.466309 537.676636,1700.185791 
z"/>
<path fill="#26206C" opacity="1.000000" stroke="none" 
	d="
M1385.859741,1666.772461 
	C1387.209229,1666.348022 1388.325195,1666.260498 1390.079346,1666.122803 
	C1388.552490,1675.109741 1387.088623,1683.717407 1385.628662,1692.325806 
	C1385.323120,1694.127319 1385.361450,1696.080933 1384.632446,1697.688354 
	C1384.015625,1699.048706 1382.517944,1700.009521 1381.410156,1701.147217 
	C1380.847412,1700.826294 1380.284668,1700.505371 1379.721924,1700.184570 
	C1381.690063,1689.159424 1383.658081,1678.134277 1385.859741,1666.772461 
z"/>
<path fill="#26206C" opacity="1.000000" stroke="none" 
	d="
M981.036499,1688.253174 
	C980.473694,1691.628296 980.218445,1694.659302 979.318359,1697.484985 
	C978.866943,1698.901855 977.240967,1699.944702 976.146179,1701.156738 
	C975.617188,1700.798096 975.088135,1700.439575 974.559143,1700.080933 
	C976.403076,1689.328613 978.164185,1678.560303 980.240784,1667.853149 
	C980.416016,1666.949219 982.704468,1666.455078 985.053772,1665.224487 
	C983.542053,1673.816772 982.309814,1680.820435 981.036499,1688.253174 
z"/>
<path fill="#26206C" opacity="1.000000" stroke="none" 
	d="
M571.851135,1674.026123 
	C570.502686,1681.809814 569.166504,1689.158813 567.934265,1696.525146 
	C567.483093,1699.222290 566.972168,1701.573486 562.836121,1699.993286 
	C564.625854,1689.457642 566.335632,1678.856445 568.352417,1668.313843 
	C568.563843,1667.208862 570.588562,1666.450928 571.771973,1665.531982 
	C572.146545,1665.828979 572.521179,1666.126099 572.895752,1666.423096 
	C572.565369,1668.814819 572.234924,1671.206665 571.851135,1674.026123 
z"/>
<path fill="#E40160" opacity="1.000000" stroke="none" 
	d="
M1269.856934,439.674011 
	C1269.394409,439.867828 1268.746460,439.850159 1268.049805,439.555176 
	C1268.557861,439.339386 1269.114746,439.400940 1269.856934,439.674011 
z"/>
<path fill="#AE0475" opacity="1.000000" stroke="none" 
	d="
M436.965881,1031.961670 
	C436.790710,1032.454346 436.637695,1032.968384 436.484680,1033.482544 
	C436.477478,1033.039551 436.470276,1032.596680 436.749878,1032.087524 
	C437.036713,1032.021362 436.987976,1031.983276 436.965881,1031.961670 
z"/>
<path fill="#C5026B" opacity="1.000000" stroke="none" 
	d="
M898.828613,434.832184 
	C898.783386,434.545258 899.027771,434.223511 899.575562,433.937683 
	C899.625366,434.248199 899.371826,434.522797 898.828613,434.832184 
z"/>
<path fill="#FFFFFF" opacity="1.000000" stroke="none" 
	d="
M1242.434814,1532.469482 
	C1243.649536,1513.451416 1250.039917,1497.506226 1266.472168,1487.317261 
	C1300.980713,1465.920044 1343.986938,1488.245239 1346.941650,1528.922485 
	C1347.908325,1542.230469 1346.685303,1555.203857 1340.299683,1567.236328 
	C1329.644287,1587.314209 1309.997925,1596.452881 1285.096924,1592.990234 
	C1264.959473,1590.189819 1248.553223,1574.518311 1244.212524,1553.202759 
	C1242.865723,1546.589600 1242.945679,1539.685913 1242.434814,1532.469482 
z"/>
<path fill="#FFFFFF" opacity="1.000000" stroke="none" 
	d="
M800.519409,1504.610596 
	C810.711731,1525.329468 811.186890,1546.107910 801.460571,1566.493042 
	C791.599792,1587.159912 771.386658,1596.367798 746.239502,1593.014282 
	C726.116394,1590.330688 709.524231,1574.418823 705.056152,1553.404175 
	C701.829224,1538.226807 702.282593,1523.239136 708.749878,1508.940186 
	C716.902161,1490.916016 731.322021,1481.396118 750.870667,1480.015503 
	C771.917664,1478.529175 789.142822,1485.402222 800.519409,1504.610596 
z"/>
<path fill="#FFFFFF" opacity="1.000000" stroke="none" 
	d="
M927.994507,1528.997437 
	C921.526245,1528.997437 915.556641,1528.997437 909.297607,1528.997437 
	C909.297607,1512.393066 909.297607,1496.137939 909.297607,1478.429443 
	C922.344788,1479.240234 935.529236,1479.016479 948.314575,1481.166016 
	C959.668213,1483.074707 964.508484,1492.355835 964.006348,1506.071655 
	C963.585938,1517.555176 957.162903,1525.895264 946.383728,1527.800171 
	C940.532471,1528.834351 934.463806,1528.638550 927.994507,1528.997437 
z"/>
<path fill="#FFFFFF" opacity="1.000000" stroke="none" 
	d="
M1353.339355,1674.192871 
	C1352.713379,1682.013062 1350.012329,1683.563232 1338.829224,1682.653320 
	C1339.163818,1680.601196 1339.485474,1678.576172 1339.826294,1676.554565 
	C1340.177734,1674.469604 1340.547729,1672.387817 1340.980347,1669.898560 
	C1345.412354,1670.816040 1350.590698,1667.881470 1353.339355,1674.192871 
z"/>
<path fill="#FFFFFF" opacity="1.000000" stroke="none" 
	d="
M419.510437,1686.265869 
	C420.680786,1681.913086 421.293396,1677.713623 423.078522,1674.092163 
	C425.027222,1670.138794 428.977051,1668.665039 433.301300,1670.019653 
	C437.312195,1671.276245 438.190796,1674.825806 437.910522,1678.486206 
	C437.633789,1682.100586 437.227417,1685.798462 436.162140,1689.238037 
	C434.338898,1695.125122 429.828247,1698.170166 425.041595,1696.984863 
	C419.609650,1695.640015 419.437683,1691.139038 419.510437,1686.265869 
z"/>
<path fill="#FFFFFF" opacity="1.000000" stroke="none" 
	d="
M839.582520,1669.955566 
	C846.458313,1669.425537 849.333374,1671.598389 848.999878,1677.835205 
	C848.748169,1682.539917 847.865417,1687.401978 846.192444,1691.785156 
	C844.581055,1696.007324 840.588257,1698.022095 835.953613,1696.915283 
	C831.282349,1695.799561 830.612549,1691.748291 830.759033,1687.820801 
	C831.022095,1680.768311 831.546265,1673.674561 839.582520,1669.955566 
z"/>
<path fill="#FFFFFF" opacity="1.000000" stroke="none" 
	d="
M934.684326,1671.666504 
	C938.641235,1671.158936 942.570984,1670.618042 946.284546,1671.283325 
	C947.401306,1671.483521 948.994080,1675.413452 948.454102,1676.970947 
	C947.651184,1679.287598 945.492493,1681.926270 943.279907,1682.766357 
	C940.362488,1683.873901 936.834167,1683.372314 932.666138,1683.615112 
	C933.367371,1679.381836 933.970764,1675.738770 934.684326,1671.666504 
z"/>
<path fill="#FFFFFF" opacity="1.000000" stroke="none" 
	d="
M1245.243408,1673.386719 
	C1246.976196,1667.089722 1251.661255,1670.457642 1254.773560,1670.384033 
	C1256.406860,1670.345459 1259.110229,1673.319458 1259.572510,1675.335938 
	C1260.384521,1678.877441 1258.231323,1681.981201 1254.621216,1682.821655 
	C1251.339111,1683.585815 1247.824707,1683.351562 1243.795410,1683.594727 
	C1244.310791,1679.898071 1244.734497,1676.858765 1245.243408,1673.386719 
z"/>
<path fill="#FFFFFF" opacity="1.000000" stroke="none" 
	d="
M898.181335,1671.645264 
	C901.195007,1677.827393 898.686707,1682.664673 892.399231,1683.313599 
	C889.802002,1683.581543 887.154053,1683.357910 883.710571,1683.357910 
	C884.475281,1678.744873 885.180542,1674.490479 886.021973,1669.414917 
	C890.258362,1670.107178 894.077881,1670.731323 898.181335,1671.645264 
z"/>
</svg>